<?xml version="1.0" encoding="utf-8"?>
<!-- Generator: Adobe Illustrator 22.0.1, SVG Export Plug-In . SVG Version: 6.00 Build 0)  -->
<svg version="1.1" xmlns="http://www.w3.org/2000/svg" xmlns:xlink="http://www.w3.org/1999/xlink" x="0px" y="0px"
	 viewBox="0 0 500 500" style="enable-background:new 0 0 500 500;" xml:space="preserve">
<style type="text/css">
	.st0{display:none;}
	.st1{display:inline;fill:#FFFFFF;}
	.st2{fill:#DFF1FD;}
	.st3{fill:#C6E6FD;}
	.st4{fill:url(#SVGID_1_);}
	.st5{fill:none;stroke:#4089C1;stroke-width:1.8488;stroke-linecap:round;stroke-miterlimit:10;}
	.st6{fill:url(#SVGID_2_);}
	.st7{fill:none;stroke:#B2C0CA;stroke-width:0.9244;stroke-linecap:round;stroke-miterlimit:10;}
	.st8{fill:url(#SVGID_3_);}
	.st9{fill:url(#SVGID_4_);}
	.st10{fill:url(#SVGID_5_);}
	.st11{fill:none;stroke:#B2C0CA;stroke-width:1.8488;stroke-linecap:round;stroke-miterlimit:10;}
	.st12{fill:url(#SVGID_6_);}
	.st13{fill:url(#SVGID_7_);}
	.st14{fill:url(#SVGID_8_);}
	.st15{fill:url(#SVGID_9_);}
	.st16{fill:url(#SVGID_10_);}
	.st17{fill:url(#SVGID_11_);}
	.st18{fill:#0D2933;}
	.st19{opacity:0.59;fill:#7FC8FD;}
	.st20{opacity:0.59;fill:#F0F8FF;}
	.st21{fill:none;stroke:#174859;stroke-width:5.5533;stroke-miterlimit:10;}
	.st22{fill:#FF5D7B;}
	.st23{fill:#F4B031;}
	.st24{fill:#E8A423;}
	.st25{fill:#F4C43E;}
	.st26{fill:#FACFC9;}
	.st27{fill:#174859;}
	.st28{fill:#AAB9D8;}
	.st29{fill:#B4D3F7;}
	.st30{fill:#99C5F7;}
	.st31{fill:none;stroke:#C1DEFF;stroke-width:1.4337;stroke-linejoin:round;stroke-miterlimit:10;}
	.st32{fill:#E0EFF2;}
	.st33{fill:#C1DEFF;}
	.st34{fill:#164454;}
	.st35{fill:#FFFFFF;}
	.st36{fill:#DFECF0;}
	.st37{fill:#66A1ED;}
	.st38{fill:#8CBDF7;}
	.st39{fill:#0F2F3B;}
	.st40{fill:#143E4D;}
	.st41{fill:#CF2949;}
	.st42{fill:#FFD96E;}
	.st43{fill:none;stroke:#FFF8E6;stroke-width:0.5581;stroke-linejoin:round;stroke-miterlimit:10;}
	.st44{fill:#FFE69E;}
	.st45{fill:none;stroke:#174859;stroke-width:0.816;stroke-miterlimit:10;}
	.st46{fill:#CC3853;}
	.st47{fill:#5384C2;}
	.st48{fill:#E03D5B;}
	.st49{fill:#ABB5F3;}
	.st50{fill:#E0A880;}
	.st51{fill:#F8C29C;}
	.st52{display:inline;}
	.st53{fill:#1D262D;}
</style>
<g id="BACKGROUND" class="st0">
	<rect class="st1" width="500" height="500"/>
</g>
<g id="OBJECTS">
	<g>
		<g>
			<path class="st2" d="M241.1,198.8c0.5-1.3,0.7-2.8,0.7-4.3c0-6.9-5.5-12.5-12.3-12.7c-1.5-6.3-7.2-11-14-11c-0.4,0-0.7,0-1.1,0
				c-1.2-1-2.7-1.8-4.3-2.2c-0.8-4-3.6-7.2-7.3-8.6c0.2-1.1,0.2-2.2,0.2-3.4c0-13.1-10.6-23.7-23.7-23.7c-12.7,0-23,10-23.7,22.5
				c-8.6,1-15.3,8.3-15.3,17.2c0,0.4,0,0.8,0,1.2c-4.7,0.6-8.4,4.6-8.4,9.5c0,3.7,2.1,6.9,5.2,8.5c-0.1,0.6-0.2,1.3-0.2,1.9
				c0,1.8,0.5,3.4,1.3,4.8h-0.2c-3.6,0-6.6,3-6.6,6.6l0,0c0,3.6,3,6.6,6.6,6.6h101.7c3.6,0,6.6-3,6.6-6.6l0,0
				C246.5,202.1,244.2,199.4,241.1,198.8z"/>
			<path class="st2" d="M287,180.1c-0.4-1-0.6-2.1-0.6-3.2c0-5.2,4.2-9.5,9.4-9.7c1.2-4.8,5.5-8.4,10.7-8.4c0.3,0,0.6,0,0.9,0
				c0.9-0.8,2.1-1.3,3.3-1.7c0.6-3,2.7-5.5,5.6-6.6c-0.1-0.8-0.2-1.7-0.2-2.6c0-10,8.1-18.1,18.1-18.1c9.7,0,17.6,7.6,18.1,17.1
				c6.6,0.8,11.7,6.4,11.7,13.1c0,0.3,0,0.6,0,0.9c3.6,0.5,6.4,3.5,6.4,7.2c0,2.8-1.6,5.3-4,6.5c0.1,0.5,0.2,1,0.2,1.5
				c0,1.3-0.4,2.6-1,3.7h0.2c2.8,0,5,2.3,5,5l0,0c0,2.8-2.3,5-5,5h-77.5c-2.8,0-5-2.3-5-5l0,0C282.9,182.6,284.7,180.5,287,180.1z"
				/>
			<path class="st2" d="M235.2,108c-0.3-0.7-0.4-1.5-0.4-2.3c0-3.7,3-6.8,6.7-6.9c0.8-3.4,3.9-6,7.6-6c0.2,0,0.4,0,0.6,0
				c0.7-0.6,1.5-1,2.4-1.2c0.4-2.2,2-3.9,4-4.7c-0.1-0.6-0.1-1.2-0.1-1.8c0-7.1,5.8-12.9,12.9-12.9c6.9,0,12.6,5.4,12.9,12.3
				c4.7,0.6,8.3,4.5,8.3,9.4c0,0.2,0,0.4,0,0.6c2.6,0.3,4.6,2.5,4.6,5.2c0,2-1.1,3.8-2.8,4.6c0.1,0.3,0.1,0.7,0.1,1.1
				c0,1-0.3,1.9-0.7,2.6h0.1c2,0,3.6,1.6,3.6,3.6l0,0c0,2-1.6,3.6-3.6,3.6h-55.4c-2,0-3.6-1.6-3.6-3.6l0,0
				C232.3,109.8,233.5,108.4,235.2,108z"/>
			<path class="st2" d="M317.1,264.2c-0.4-1-0.6-2.1-0.6-3.2c0-5.2,4.2-9.5,9.4-9.7c1.2-4.8,5.5-8.4,10.7-8.4c0.3,0,0.6,0,0.9,0
				c0.9-0.8,2.1-1.3,3.3-1.7c0.6-3,2.7-5.5,5.6-6.6c-0.1-0.8-0.2-1.7-0.2-2.6c0-10,8.1-18.1,18.1-18.1c9.7,0,17.6,7.6,18.1,17.1
				c6.6,0.8,11.7,6.4,11.7,13.1c0,0.3,0,0.6,0,0.9c3.6,0.5,6.4,3.5,6.4,7.2c0,2.8-1.6,5.3-4,6.5c0.1,0.5,0.2,1,0.2,1.5
				c0,1.3-0.4,2.6-1,3.7h0.2c2.8,0,5,2.3,5,5l0,0c0,2.8-2.3,5-5,5h-77.5c-2.8,0-5-2.3-5-5l0,0C313.1,266.7,314.8,264.6,317.1,264.2z
				"/>
			<path class="st2" d="M61.5,298.8c-0.4-1-0.6-2.1-0.6-3.2c0-5.2,4.2-9.5,9.4-9.7c1.2-4.8,5.5-8.4,10.7-8.4c0.3,0,0.6,0,0.9,0
				c0.9-0.8,2.1-1.3,3.3-1.7c0.6-3,2.7-5.5,5.6-6.6c-0.1-0.8-0.2-1.7-0.2-2.6c0-10,8.1-18.1,18.1-18.1c9.7,0,17.6,7.6,18.1,17.1
				c6.6,0.8,11.7,6.4,11.7,13.1c0,0.3,0,0.6,0,0.9c3.6,0.5,6.4,3.5,6.4,7.2c0,2.8-1.6,5.3-4,6.5c0.1,0.5,0.2,1,0.2,1.5
				c0,1.3-0.4,2.6-1,3.7h0.2c2.8,0,5,2.3,5,5v0c0,2.8-2.3,5-5,5H62.5c-2.8,0-5-2.3-5-5v0C57.4,301.3,59.2,299.3,61.5,298.8z"/>
		</g>
		<ellipse class="st3" cx="250" cy="366.6" rx="220.1" ry="35.4"/>
		<g>
			<g>
				
					<linearGradient id="SVGID_1_" gradientUnits="userSpaceOnUse" x1="377.816" y1="178.4763" x2="405.8914" y2="178.4763" gradientTransform="matrix(0.986 0.1669 -0.1669 0.986 45.2737 -72.8597)">
					<stop  offset="0.191" style="stop-color:#47A2E9"/>
					<stop  offset="0.6581" style="stop-color:#8ABCF7"/>
				</linearGradient>
				<path class="st4" d="M394.6,194c0,0-6.6-24.1-5.4-34.8c1.2-10.6,7.1-7.3,8.2,0.7c1.1,7.9,7.7,3.8,2.8-7.8
					c-4.8-11.6,6.7-19.5,8.9-12.5c2.2,7-7.5,31.6-3.8,32.9c3.6,1.3,3.9-11.3,7.8-10.9c3.9,0.5,4.4,12.8-2.9,21.7
					c-7.3,8.8-7.3,15.3-10.3,16.7C396.8,201.5,394.6,194,394.6,194z"/>
				<path class="st5" d="M397.9,191.7c0,0-1.1-10.1,0.6-14.4c1.7-4.2,3.9-12.6,3.9-12.6"/>
				<path class="st5" d="M398.2,178.4c0,0-3.5-6.4-3-9.2"/>
				<path class="st5" d="M397.5,182.3c0.1,0.5,12.9-6.3,13.9-10.3"/>
			</g>
			<g>
				
					<linearGradient id="SVGID_2_" gradientUnits="userSpaceOnUse" x1="385.003" y1="266.6837" x2="359.3825" y2="221.4439" gradientTransform="matrix(0.8701 0.4928 -0.4928 0.8701 194.5913 -187.8004)">
					<stop  offset="0.2435" style="stop-color:#49687E"/>
					<stop  offset="1" style="stop-color:#DFF1FD"/>
				</linearGradient>
				<path class="st6" d="M383.3,226c0,0,2.2-18.3,12.6-30.3c10.4-12.1,17.1-13.7,17.1-13.7s6.2,15.2-6.5,31.5
					C393.7,229.9,376.9,243,383.3,226z"/>
				<path class="st7" d="M382.3,233.5c0,0,21-29.6,27.5-47.2"/>
				<path class="st7" d="M384.3,230.7c0,0,7.7-3.2,8.9-4.4"/>
				<path class="st7" d="M388.6,209.7c-1.4,3.2,1.2,12.6,1.2,12.6s8.2-0.1,9.3-1.4"/>
				<path class="st7" d="M395.2,214c0,0,5.7-0.4,8.7-1.4"/>
				<path class="st7" d="M399.5,206.4c0,0,8.8,0.5,10.9-1.6"/>
				<path class="st7" d="M397.4,210.2c0,0-3.1-9.7-1.4-12.3"/>
				<path class="st7" d="M403.7,199.5c0,0,7.1-0.1,8.8-2"/>
				<path class="st7" d="M405.7,195.5c0,0-1.9-4.2-1.2-5.3"/>
			</g>
			<g>
				
					<linearGradient id="SVGID_3_" gradientUnits="userSpaceOnUse" x1="381.071" y1="221.6161" x2="374.7766" y2="179.0169" gradientTransform="matrix(0.9893 0.1462 -0.1462 0.9893 45.6294 -63.5208)">
					<stop  offset="0.2435" style="stop-color:#49687E"/>
					<stop  offset="1" style="stop-color:#DFF1FD"/>
				</linearGradient>
				<path class="st8" d="M384,206c0,0-3.3-13,0.6-23.9c3.9-10.9,8-13.7,8-13.7s8.2,8.7,3.8,23.1C392.2,205.9,384.2,219.2,384,206z"
					/>
				<path class="st7" d="M385.3,211.4c0,0,6.5-25.6,6.3-39.2"/>
				<path class="st7" d="M385.9,208.9c0,0,4.4-4.2,4.9-5.3"/>
				<path class="st7" d="M383.4,193.6c-0.1,2.6,4.1,8.3,4.1,8.3s5.5-2.2,5.9-3.4"/>
				<path class="st7" d="M389,194.7c0,0,3.7-1.7,5.5-3.2"/>
				<path class="st7" d="M389.9,188.4c0,0,6.1-2,6.9-4"/>
				<path class="st7" d="M389.4,191.6c0,0-4.6-5.8-4.2-8"/>
				<path class="st7" d="M390.9,182.7c0,0,4.8-1.9,5.4-3.7"/>
				<path class="st7" d="M391.3,179.5c0,0-2.4-2.3-2.2-3.3"/>
			</g>
			<g>
				<linearGradient id="SVGID_4_" gradientUnits="userSpaceOnUse" x1="356.8588" y1="248.4501" x2="408.6446" y2="248.4501">
					<stop  offset="0.191" style="stop-color:#47A2E9"/>
					<stop  offset="0.6581" style="stop-color:#8ABCF7"/>
				</linearGradient>
				<path class="st9" d="M377.5,297.1c0,0-19.5-41.9-20.6-61.6c-1-19.7,10.6-15.4,15.1-1.3c4.5,14.1,15.1,4.5,2.7-15
					c-12.3-19.5,6.2-37.5,12.3-25.4c6.2,12.1-3.9,59.7,3.1,61c7,1.3,3.6-21.8,10.9-22.2c7.2-0.3,11.9,22,1.3,40.3
					c-10.6,18.3-8.6,30.1-13.7,33.6C383.8,309.9,377.5,297.1,377.5,297.1z"/>
				<path class="st5" d="M382.8,291.9c0,0-5.1-18.1-3.3-26.3c1.8-8.2,3.3-24.2,3.3-24.2"/>
				<path class="st5" d="M379.1,267.6c0,0-8.4-10.6-8.4-15.9"/>
				<path class="st5" d="M379.1,274.8c0.4,0.8,21.6-15.5,22-23.1"/>
			</g>
			<g>
				<linearGradient id="SVGID_5_" gradientUnits="userSpaceOnUse" x1="396.3983" y1="346.5963" x2="396.3983" y2="254.2501">
					<stop  offset="0.2435" style="stop-color:#49687E"/>
					<stop  offset="1" style="stop-color:#DFF1FD"/>
				</linearGradient>
				<path class="st10" d="M389,335.7c0,0-11-26.1-6.1-50.2c4.8-24.1,12.5-31.3,12.5-31.3s19.8,15.7,15.2,47.2
					C405.9,333,393.3,363.5,389,335.7z"/>
				<path class="st11" d="M393.4,346.6c0,0,5.7-55.7,1-84.1"/>
				<path class="st11" d="M393.9,341.2c0,0,7.9-10.1,8.6-12.6"/>
				<path class="st11" d="M383.8,309.9c0.5,5.4,11.2,16,11.2,16s10.9-6.4,11.4-8.9"/>
				<path class="st11" d="M395.8,310.6c0,0,7.3-4.8,10.6-8.4"/>
				<path class="st11" d="M395.8,297.1c0,0,12.1-6,13.3-10.5"/>
				<path class="st11" d="M395.8,303.9c0,0-11.5-10.7-11.2-15.5"/>
				<path class="st11" d="M396.1,284.8c0,0,9.4-5.5,10.3-9.4"/>
				<path class="st11" d="M395.9,277.9c0,0-5.7-4.1-5.7-6.2"/>
			</g>
			<g>
				
					<linearGradient id="SVGID_6_" gradientUnits="userSpaceOnUse" x1="459.4251" y1="347.1726" x2="434.7669" y2="262.2367" gradientTransform="matrix(0.9603 0.2788 -0.2788 0.9603 79.5727 -121.1407)">
					<stop  offset="0.2435" style="stop-color:#49687E"/>
					<stop  offset="1" style="stop-color:#DFF1FD"/>
				</linearGradient>
				<path class="st12" d="M406.3,328.4c0,0-3.2-28.1,8.1-49.9s20.7-26.6,20.7-26.6s14.6,20.6,1.4,49.6
					C423.4,330.5,402.8,356.2,406.3,328.4z"/>
				<path class="st11" d="M407.5,340c0,0,21-51.9,24.4-80.5"/>
				<path class="st11" d="M409.5,335c0,0,10.4-7.5,11.8-9.7"/>
				<path class="st11" d="M408.5,302.1c-1,5.4,6.3,18.5,6.3,18.5s12.2-3.1,13.4-5.4"/>
				<path class="st11" d="M419.9,306.2c0,0,8.4-2.6,12.5-5.1"/>
				<path class="st11" d="M423.7,293.2c0,0,13.3-2.4,15.7-6.3"/>
				<path class="st11" d="M421.8,299.7c0,0-8.1-13.5-6.4-18"/>
				<path class="st11" d="M427.4,281.4c0,0,10.6-2.7,12.5-6.2"/>
				<path class="st11" d="M429.1,274.8c0,0-4.4-5.6-3.7-7.5"/>
			</g>
		</g>
		<g>
			<g>
				
					<linearGradient id="SVGID_7_" gradientUnits="userSpaceOnUse" x1="77.9169" y1="440.5923" x2="148.4895" y2="384.8838" gradientTransform="matrix(0.6196 -0.7849 0.7849 0.6196 -227.3419 114.7985)">
					<stop  offset="0.2435" style="stop-color:#49687E"/>
					<stop  offset="1" style="stop-color:#DFF1FD"/>
				</linearGradient>
				<path class="st13" d="M202.7,321.2c0,0-41.1-11.4-65.1-39.6c-24-28.2-25.3-43.9-25.3-43.9s37-8.8,70,26.1
					C215.4,298.7,239.6,342,202.7,321.2z"/>
				<path class="st11" d="M219.7,326.2c0,0-60.5-58.6-98.5-79.7"/>
				<path class="st11" d="M213.8,320.6c0,0-4.5-18.7-6.9-21.9"/>
				<path class="st11" d="M167.3,303.3c6.9,4.5,29.4,1.6,29.4,1.6s2.6-18.8,0-21.8"/>
				<path class="st11" d="M179.4,289.7c0,0,1.2-13.1-0.1-20.3"/>
				<path class="st11" d="M163.4,277.1c0,0,4.2-19.9,0.1-25.5"/>
				<path class="st11" d="M171.5,283.4c0,0-23.4,3.6-28.8-1.3"/>
				<path class="st11" d="M149.1,265.2c0,0,2.3-16.3-1.6-20.9"/>
				<path class="st11" d="M140.8,259.1c0,0-10.2,2.9-12.6,0.9"/>
			</g>
			<g>
				
					<linearGradient id="SVGID_8_" gradientUnits="userSpaceOnUse" x1="75.6909" y1="355.1879" x2="119.1536" y2="320.8794" gradientTransform="matrix(0.6196 -0.7849 0.7849 0.6196 -227.3419 114.7985)">
					<stop  offset="0.2435" style="stop-color:#49687E"/>
					<stop  offset="1" style="stop-color:#DFF1FD"/>
				</linearGradient>
				<path class="st14" d="M120.5,272.1c0,0-25.3-7-40.1-24.4c-14.8-17.4-15.6-27.1-15.6-27.1s22.8-5.4,43.1,16.1
					S143.2,284.9,120.5,272.1z"/>
				<path class="st11" d="M130.9,275.2c0,0-37.3-36.1-60.7-49.1"/>
				<path class="st11" d="M127.3,271.7c0,0-2.8-11.5-4.3-13.5"/>
				<path class="st11" d="M98.7,261.1c4.2,2.7,18.1,1,18.1,1s1.6-11.6,0-13.4"/>
				<path class="st11" d="M106.2,252.7c0,0,0.7-8.1,0-12.5"/>
				<path class="st11" d="M96.3,244.9c0,0,2.6-12.3,0-15.7"/>
				<path class="st11" d="M101.2,248.8c0,0-14.4,2.2-17.7-0.8"/>
				<path class="st11" d="M87.5,237.6c0,0,1.4-10.1-1-12.9"/>
				<path class="st11" d="M82.4,233.9c0,0-6.3,1.8-7.8,0.6"/>
			</g>
			<g>
				
					<linearGradient id="SVGID_9_" gradientUnits="userSpaceOnUse" x1="175.8286" y1="386.1908" x2="206.9296" y2="313.1235" gradientTransform="matrix(0.9201 -0.3916 0.3916 0.9201 -207.8459 -30.7843)">
					<stop  offset="0.2435" style="stop-color:#49687E"/>
					<stop  offset="1" style="stop-color:#DFF1FD"/>
				</linearGradient>
				<path class="st15" d="M112.5,248.1c0,0-18.8-18.3-23.5-40.6c-4.6-22.3-0.7-31.2-0.7-31.2s22.6,6.2,30.1,34.8
					S126.3,270.2,112.5,248.1z"/>
				<path class="st11" d="M120.2,255.8c0,0-15.4-49.6-29.7-72.2"/>
				<path class="st11" d="M118.7,251.1c0,0,3.1-11.5,2.7-13.9"/>
				<path class="st11" d="M98.7,228c2.4,4.4,15.4,9.6,15.4,9.6s6.9-9.4,6.5-11.8"/>
				<path class="st11" d="M109.2,224.2c0,0,4.5-6.8,6-11"/>
				<path class="st11" d="M104.3,212.7c0,0,8.2-9.5,7.6-13.8"/>
				<path class="st11" d="M106.8,218.5c0,0-13.7-5-15.2-9.2"/>
				<path class="st11" d="M100.1,202c0,0,6-8.2,5.3-11.8"/>
				<path class="st11" d="M97.4,196.3c0,0-6.4-1.4-7.1-3.2"/>
			</g>
			<g>
				<linearGradient id="SVGID_10_" gradientUnits="userSpaceOnUse" x1="101.1407" y1="241.3891" x2="166.805" y2="241.3891">
					<stop  offset="0.191" style="stop-color:#47A2E9"/>
					<stop  offset="0.6581" style="stop-color:#8ABCF7"/>
				</linearGradient>
				<path class="st16" d="M127.3,303.1c0,0-24.8-53.1-26.1-78.1s13.5-19.5,19.1-1.6c5.7,17.9,19.1,5.7,3.5-19.1
					c-15.6-24.8,7.8-47.5,15.6-32.2c7.8,15.3-4.9,75.7,4,77.3c8.9,1.6,4.6-27.7,13.8-28.1c9.2-0.4,15.1,27.9,1.7,51.1
					c-13.4,23.2-10.9,38.2-17.3,42.6C135.3,319.3,127.3,303.1,127.3,303.1z"/>
				<path class="st5" d="M134,296.4c0,0-6.5-22.9-4.2-33.4c2.3-10.4,4.2-30.6,4.2-30.6"/>
				<path class="st5" d="M129.3,265.7c0,0-10.6-13.5-10.6-20.1"/>
				<path class="st5" d="M129.3,274.8c0.5,1,27.4-19.7,27.9-29.2"/>
			</g>
			<g>
				
					<linearGradient id="SVGID_11_" gradientUnits="userSpaceOnUse" x1="20.7242" y1="374.3342" x2="68.4421" y2="366.6421" gradientTransform="matrix(0.1591 -0.9873 0.9873 0.1591 -221.5506 300.4682)">
					<stop  offset="0.2435" style="stop-color:#49687E"/>
					<stop  offset="1" style="stop-color:#DFF1FD"/>
				</linearGradient>
				<path class="st17" d="M202.4,335.8c0,0-41.5,10-76.1-2.9s-43.5-26-43.5-26s28-25.7,73.9-11.3C202.5,310,244.7,336,202.4,335.8z"
					/>
				<path class="st11" d="M219.6,331.9c0,0-81.4-21.8-124.8-21.7"/>
				<path class="st11" d="M211.8,329.9c0,0-13.1-14.2-16.7-15.8"/>
				<path class="st11" d="M162.8,337.4c8.2,0.5,26.5-12.9,26.5-12.9s-6.9-17.7-10.6-19.1"/>
				<path class="st11" d="M166.8,319.6c0,0-5.4-12-9.9-17.7"/>
				<path class="st11" d="M146.6,316.4c0,0-6-19.5-12.4-22.3"/>
				<path class="st11" d="M156.7,318c0,0-18.7,14.6-25.8,12.9"/>
				<path class="st11" d="M128.4,313c0,0-6-15.4-11.6-17.5"/>
				<path class="st11" d="M118.1,311.7c0,0-7.5,7.5-10.6,7"/>
			</g>
		</g>
		<g>
			<path class="st18" d="M126.1,323.7c-1.1-1.3-2.2-2.3-3.5-3.3c-1.2-1-2.5-1.9-3.9-2.7c-1.4-0.8-2.8-1.5-4.3-2.1
				c-0.4-0.2-0.8-0.3-1.2-0.4l-0.6-0.2c-0.2-0.1-0.3-0.1-0.7-0.2c-1.3-0.4-2.7-0.4-3.9-0.3c-1.2,0.1-2.4,0.5-3.3,0.9
				c-1,0.4-1.9,0.9-2.7,1.4c-1.6,1-2.9,2.2-4.1,3.4c-1.2,1.2-2.3,2.4-3.3,3.7c-0.5,0.6-1,1.3-1.5,1.9l-0.7,1
				c-0.2,0.3-0.3,0.5-0.5,0.8c-2,2.4-3.9,4.8-5.9,7.3c-2,2.5-4,5-6,7.5c-2,2.5-3.9,5-5.9,7.6c-0.8,1-1.5,2-2.3,3v11.8
				c1.3,0,2.6-0.5,3.5-1.6c2.1-2.4,4.1-4.9,6.2-7.3c2-2.5,4.1-4.9,6.1-7.4c2-2.5,4-5,6-7.5c2-2.5,4-5,5.9-7.5l0.2-0.2l0.2-0.3
				l0.5-0.7l0.5-0.8c0.4-0.5,0.7-1.1,1.1-1.6c0.8-1,1.6-2,2.4-2.9c0.8-0.9,1.7-1.7,2.5-2.3c0.8-0.6,1.6-0.9,2-1c0.2,0,0.3-0.1,0.5,0
				c0,0,0.2,0,0.3,0.1l0.5,0.1c0.3,0.1,0.6,0.2,0.9,0.3c1.2,0.4,2.5,0.8,3.7,1.3c1.3,0.5,2.5,0.9,3.8,1.5c1.3,0.5,2.6,1.1,3.9,1.5
				l0.3,0.1c0.9,0.3,2,0.1,2.8-0.5C127,326.7,127.1,324.9,126.1,323.7z"/>
			<path class="st18" d="M207.8,317.1c-0.1-0.5-0.2-1.1-0.4-1.5c-0.4-1-1-1.8-1.6-2.5c-0.6-0.7-1.3-1.2-1.9-1.6
				c-0.7-0.4-1.3-0.8-1.9-1c-0.3-0.1-0.6-0.3-1-0.4l-0.5-0.2l-0.6-0.2c-1.7-0.4-3.5-0.5-5.1-0.1c-1.6,0.3-3.1,0.9-4.3,1.6
				c-1.3,0.7-2.4,1.5-3.4,2.3c-1,0.9-1.9,1.8-2.7,2.7c-0.4,0.5-0.8,0.9-1.2,1.4l-0.6,0.8c-0.2,0.3-0.3,0.5-0.6,0.9l-0.3,0.5
				l-0.2,0.6c-1.8,5.7-3.7,11.4-5.5,17.1l-2.4,7.8v14.8c0,0,0,0,0,0c2.3,0.8,4.9-0.4,5.8-2.7c1-2.8,2-5.6,3-8.5l2.9-8.5
				c1.8-5.5,3.6-10.9,5.3-16.4l0.3-0.5c0.3-0.3,0.5-0.7,0.8-1c0.5-0.7,1.1-1.3,1.7-1.8c1.2-1.1,2.4-1.8,3.3-2.1
				c0.4-0.1,0.8-0.2,1.2-0.1l0.2,0l0.3,0.1c0.2,0,0.4,0.1,0.5,0.1c0.3,0.1,0.7,0.2,0.9,0.3c0.6,0.2,0.9,0.3,1.1,0.1
				c0.1-0.1,0.2-0.1,0.4-0.1c0.1,0,0.2,0,0.2,0.1l0.1,0.1c0,0,0,0,0.1,0c0,0,0,0,0,0c0,0,0,0,0.1-0.1c-0.7,1.4-0.1,3.1,1.2,3.7
				c1.4,0.7,3.1,0.1,3.7-1.2l0.3-0.4l0.2-0.3c0.1-0.2,0.2-0.4,0.3-0.7c0.2-0.5,0.3-1,0.3-1.5C207.9,318.1,207.9,317.6,207.8,317.1z"
				/>
			<path class="st19" d="M80.3,339.5c-4.6,0-8.3,3.7-8.3,8.3v9.5l17.8-17.8H80.3z"/>
			<path class="st19" d="M104.7,339.5h-8.5l-24.3,24.3v3.3c0,3.6,2.3,6.7,5.5,7.8l33.1-33.1C109,340.4,107,339.5,104.7,339.5z"/>
			<path class="st20" d="M113.1,347.8c0-2.3-1-4.5-2.5-6l-33.1,33.1c0.9,0.3,1.8,0.5,2.8,0.5h10.8l22-22V347.8z"/>
			<path class="st19" d="M91.1,375.4h13.6c4.6,0,8.3-3.7,8.3-8.3v-13.6L91.1,375.4z"/>
			<polygon class="st20" points="89.7,339.5 71.9,357.3 71.9,363.8 96.2,339.5 			"/>
			<path class="st19" d="M142.3,339.5c-4.6,0-8.3,3.7-8.3,8.3v9.9l18.2-18.2H142.3z"/>
			<polygon class="st20" points="152.2,339.5 134,357.7 134,362.7 157.2,339.5 			"/>
			<path class="st19" d="M166.8,339.5h-9.6L134,362.7v4.4c0,3.4,2.1,6.4,5,7.6l33.2-33.2C170.7,340.3,168.8,339.5,166.8,339.5z"/>
			<path class="st20" d="M175.1,347.8c0-2.5-1.1-4.8-2.9-6.3L139,374.7c1,0.4,2.1,0.7,3.3,0.7h8.6l24.2-24.2V347.8z"/>
			<path class="st19" d="M150.9,375.4h15.9c4.6,0,8.3-3.7,8.3-8.3v-15.9L150.9,375.4z"/>
			<path class="st21" d="M104.7,375.4H80.3c-4.6,0-8.3-3.7-8.3-8.3v-19.3c0-4.6,3.7-8.3,8.3-8.3h24.5c4.6,0,8.3,3.7,8.3,8.3v19.3
				C113.1,371.7,109.3,375.4,104.7,375.4z"/>
			<path class="st21" d="M166.8,375.4h-24.5c-4.6,0-8.3-3.7-8.3-8.3v-19.3c0-4.6,3.7-8.3,8.3-8.3h24.5c4.6,0,8.3,3.7,8.3,8.3v19.3
				C175.1,371.7,171.3,375.4,166.8,375.4z"/>
			<path class="st21" d="M113.1,355.3c0,0,11.1-12,20.9,0"/>
		</g>
		<g>
			<g>
				<path class="st22" d="M324.1,324c2.3,1.8,6,3.9,10.9,4.3c2.4,0.2,4.6-1.1,5.5-3.3l2.2-5.4c-11.8,1-18-7.2-18-7.2l-2.2,5.4
					C321.6,320,322.3,322.5,324.1,324z"/>
				
					<rect x="308.9" y="273.5" transform="matrix(0.3718 -0.9283 0.9283 0.3718 -38.3842 497.517)" class="st23" width="79" height="7.3"/>
				
					<rect x="315.5" y="276.3" transform="matrix(0.3718 -0.9283 0.9283 0.3718 -36.705 505.2402)" class="st24" width="79" height="6.8"/>
				
					<rect x="303.1" y="272.1" transform="matrix(0.3718 -0.9283 0.9283 0.3718 -39.8809 490.6315)" class="st25" width="79" height="5.3"/>
				<path class="st26" d="M354.8,237.1l15.3-12.1l2.7,19.3C372.8,244.4,363.2,246.6,354.8,237.1z"/>
				<path class="st27" d="M364.3,229.6c2.4,1.6,4.7,2.4,6.8,2.8l-1-7.4L364.3,229.6z"/>
				<path class="st27" d="M323.6,314.9c0,0,6.2,8.2,18,7.2l3.5-8.7c-11.8,1-18-7.2-18-7.2L323.6,314.9z"/>
			</g>
			<g>
				<path class="st22" d="M330.1,336.4c1.8,2.3,4.8,5.3,9.4,7c2.2,0.8,4.7,0.1,6.1-1.8l3.5-4.6c-11.6-2.1-15.5-11.6-15.5-11.6
					l-3.5,4.7C328.7,331.9,328.7,334.5,330.1,336.4z"/>
				
					<rect x="326.2" y="293.8" transform="matrix(0.5991 -0.8007 0.8007 0.5991 -91.5437 412.0204)" class="st23" width="79" height="7.3"/>
				
					<rect x="331.8" y="298.2" transform="matrix(0.5991 -0.8007 0.8007 0.5991 -92.6635 418.2277)" class="st24" width="79" height="6.8"/>
				
					<rect x="321.1" y="291" transform="matrix(0.5991 -0.8007 0.8007 0.5991 -90.5464 406.4804)" class="st25" width="79" height="5.3"/>
				<path class="st26" d="M382.1,260.5l17.9-7.7l-2.4,19.4C397.7,272.1,387.8,271.7,382.1,260.5z"/>
				<path class="st27" d="M393.3,255.6c1.9,2.1,4,3.5,5.8,4.5l0.9-7.4L393.3,255.6z"/>
				<path class="st27" d="M332,327.5c0,0,3.9,9.5,15.5,11.6l5.6-7.5c-11.6-2.1-15.5-11.6-15.5-11.6L332,327.5z"/>
			</g>
		</g>
		<g>
			<g>
				<path class="st28" d="M442.3,339.3l-6.1,22.6c-0.6,2.1-2.7,3.3-4.8,2.8l0,0c-2.1-0.6-3.3-2.7-2.8-4.8l6.1-22.6
					c0.6-2.1,2.7-3.3,4.8-2.8l0,0C441.6,335.1,442.9,337.2,442.3,339.3z"/>
				<path class="st29" d="M371.9,294.9c-19.8-5.3-40.3,6.8-44.9,27.1c-4.3,18.6,6.9,37.6,25.3,43c9.7,2.8,19.6,1.4,27.7-3.1
					c4.3-2.4,9.3-3.1,14.1-1.8l4.3,1.2c7.9,2.1,16.1-2.6,18.2-10.5l3.1-11.5c2.1-7.9-2.6-16.1-10.5-18.2l-4.3-1.2
					c-4.7-1.3-8.7-4.4-11.2-8.6C389,303.5,381.4,297.4,371.9,294.9z"/>
				<path class="st30" d="M357.5,294c2.6,0,5.3,0.4,8,1.1c8.4,2.2,15.1,7.6,19.2,14.5c2.2,3.7,5.8,6.4,9.9,7.6l3.8,1
					c7,1.9,11.2,9.1,9.3,16.1l-2.7,10.2c-1.9,7-9.1,11.2-16.1,9.3l-3.8-1c-4.2-1.1-8.6-0.5-12.4,1.6c-7.2,4-15.9,5.2-24.5,2.7
					c-10.4-3-18.2-11-21.4-20.7c2.4,13.2,12,24.7,25.6,28.6c9.7,2.8,19.6,1.4,27.7-3.1c4.3-2.4,9.3-3.1,14.1-1.8l4.3,1.2
					c7.9,2.1,16.1-2.6,18.2-10.5l3.1-11.5c2.1-7.9-2.6-16.1-10.5-18.2l-4.3-1.2c-4.7-1.3-8.7-4.4-11.2-8.6
					c-4.7-7.8-12.3-13.8-21.7-16.4C367.1,293.6,362.2,293.3,357.5,294z"/>
				<path class="st31" d="M412.7,352.3l-42.5-11.4c0,0,5.2,0.1,4.2-4.2c-1.1-4.3-11.8-0.7-6.1,1c5.7,1.7,12.2-6.4,6.1-10.6
					c-6.1-4.2-10,5.4-1,3.5c9-1.9,1.9-8.5,1.9-8.5l42.5,11.4"/>
				<path class="st32" d="M427.7,332.4l-7.6,28.2c-0.7,2.6-3.4,4.2-6,3.5l0,0c-2.6-0.7-4.2-3.4-3.5-6l7.6-28.2
					c0.7-2.6,3.4-4.2,6-3.5h0C426.9,327.1,428.4,329.8,427.7,332.4z"/>
				<path class="st32" d="M431.6,333.4l-7.6,28.2c-0.7,2.6-3.4,4.2-6,3.5l0,0c-2.6-0.7-4.2-3.4-3.5-6l7.6-28.2
					c0.7-2.6,3.4-4.2,6-3.5l0,0C430.7,328.1,432.3,330.8,431.6,333.4z"/>
				<path class="st32" d="M435.4,334.5l-7.6,28.2c-0.7,2.6-3.4,4.2-6,3.5l0,0c-2.6-0.7-4.2-3.4-3.5-6l7.6-28.2
					c0.7-2.6,3.4-4.2,6-3.5l0,0C434.6,329.2,436.1,331.9,435.4,334.5z"/>
				<path class="st32" d="M439.2,335.5l-7.6,28.2c-0.7,2.6-3.4,4.2-6,3.5l0,0c-2.6-0.7-4.2-3.4-3.5-6l7.6-28.2
					c0.7-2.6,3.4-4.2,6-3.5l0,0C438.4,330.2,439.9,332.9,439.2,335.5z"/>
				<path class="st28" d="M424.1,330.2l-8.2,30.4c-0.8,2.8-3.7,4.5-6.5,3.7l0,0c-2.8-0.8-4.5-3.7-3.7-6.5l8.2-30.4
					c0.8-2.8,3.7-4.5,6.5-3.7l0,0C423.2,324.5,424.9,327.4,424.1,330.2z"/>
				<path class="st33" d="M354.6,313.2L354.6,313.2c-0.9,3.3-4.4,5.3-7.7,4.4l-3.1-0.8c-3.3-0.9-5.3-4.4-4.4-7.7l0,0
					c0.9-3.3,4.4-5.3,7.7-4.4l3.1,0.8C353.5,306.4,355.5,309.9,354.6,313.2z"/>
				<path class="st33" d="M366.8,314.9L366.8,314.9c-0.7,2.5-3.3,4-5.8,3.4l0,0c-2.5-0.7-4-3.3-3.4-5.8l0,0c0.7-2.5,3.3-4,5.8-3.4
					l0,0C366,309.8,367.5,312.4,366.8,314.9z"/>
			</g>
			<path class="st32" d="M440.2,334.8l-3.9,14.6c-0.6,2.1-2.7,3.3-4.8,2.8c-0.1,0-0.1,0-0.1-0.1c-1,2-3.4,3.1-5.6,2.5
				c-0.7-0.2-1.3-0.5-1.8-0.9c-0.7,0.1-1.3,0.1-2-0.1c-0.7-0.2-1.3-0.5-1.8-0.9c-0.7,0.1-1.3,0.1-2-0.1c-0.7-0.2-1.3-0.5-1.8-0.9
				c-0.7,0.1-1.3,0.1-2-0.1l0,0c-0.2-0.1-0.4-0.1-0.6-0.2c-1.2,0.7-2.6,0.9-4.1,0.6c-1.7-0.4-2.9-1.7-3.5-3.2c-1,0.3-2,0.4-3.1,0.5
				c-1.5,0.1-3-0.1-4.4-0.5l-4.3-1.2c-0.6-0.2-1.2-0.3-1.8-0.4c-3.6-0.6-7.3-0.1-10.6,1.4c-0.6,0.2-1.1,0.5-1.6,0.8
				c-2.5,1.4-5.3,2.5-8.1,3.3c-1.1,0.3-2.3,0.6-3.4,0.8c-2.3,0.4-4.7,0.6-7.1,0.5c-1.2,0-2.4-0.1-3.6-0.3c-1.8-0.2-3.6-0.6-5.5-1.2
				c-0.8-0.2-1.5-0.5-2.2-0.7c-0.2-0.1-0.4-0.1-0.6-0.2c-0.7-0.3-1.4-0.5-2-0.8c0,0-0.1,0-0.1,0c-0.7-0.3-1.4-0.7-2.1-1
				c-0.2-0.1-0.3-0.2-0.5-0.3c-0.6-0.3-1.2-0.7-1.8-1.1c0,0-0.1-0.1-0.1-0.1c-0.6-0.4-1.3-0.9-1.9-1.3c-0.1-0.1-0.3-0.2-0.4-0.3
				c-0.6-0.4-1.1-0.9-1.7-1.3c0,0-0.1-0.1-0.1-0.1c-0.6-0.5-1.2-1-1.7-1.6c-0.1-0.1-0.2-0.2-0.3-0.3c-0.5-0.5-1-1.1-1.5-1.6
				c0,0,0,0-0.1-0.1c-0.5-0.6-1-1.2-1.5-1.8c0-0.1-0.1-0.1-0.1-0.2c-0.5-0.6-0.9-1.2-1.3-1.9c0,0,0,0,0,0c-0.5-0.7-0.9-1.4-1.3-2.1
				c0,0,0-0.1-0.1-0.1c-2.1-3.6-3.5-7.6-4.2-11.7c-1.5,8.6,0.1,17.1,4.2,24.3c0,0,0,0.1,0.1,0.1c0.4,0.7,0.8,1.4,1.3,2.1
				c0,0,0,0,0,0c0.4,0.6,0.9,1.3,1.3,1.9c0,0.1,0.1,0.1,0.1,0.2c0.5,0.6,1,1.2,1.5,1.8c0,0,0,0,0.1,0.1c0.5,0.6,1,1.1,1.5,1.6
				c0.1,0.1,0.2,0.2,0.3,0.3c0.6,0.5,1.1,1.1,1.7,1.6c0,0,0.1,0.1,0.1,0.1c0.5,0.5,1.1,0.9,1.7,1.3c0.1,0.1,0.3,0.2,0.4,0.3
				c0.6,0.5,1.2,0.9,1.9,1.3c0,0,0.1,0.1,0.1,0.1c0.6,0.4,1.2,0.7,1.8,1.1c0.2,0.1,0.3,0.2,0.5,0.3c0.7,0.4,1.4,0.7,2.1,1
				c0,0,0.1,0,0.1,0c0.7,0.3,1.3,0.6,2,0.8c0.2,0.1,0.4,0.1,0.6,0.2c0.7,0.3,1.5,0.5,2.2,0.7c1.8,0.5,3.6,0.9,5.5,1.2
				c1.2,0.2,2.4,0.3,3.6,0.3c2.4,0.1,4.8-0.1,7.1-0.5c1.2-0.2,2.3-0.4,3.4-0.8c2.8-0.8,5.5-1.9,8.1-3.3c0.5-0.3,1.1-0.6,1.6-0.8
				c3.3-1.5,7-2,10.6-1.4c0.6,0.1,1.2,0.2,1.8,0.4l4.3,1.2c1.5,0.4,3,0.6,4.4,0.5c1.1,0,2.1-0.2,3.1-0.5c0.6,1.5,1.9,2.7,3.5,3.2
				c1.4,0.4,2.9,0.1,4.1-0.6c0.2,0.1,0.4,0.2,0.6,0.2l0,0c0.7,0.2,1.4,0.2,2,0.1c0.5,0.4,1.1,0.7,1.8,0.9c0.7,0.2,1.4,0.2,2,0.1
				c0.5,0.4,1.1,0.7,1.8,0.9c0.7,0.2,1.4,0.2,2,0.1c0.5,0.4,1.1,0.7,1.8,0.9c2.3,0.6,4.6-0.5,5.6-2.5c0,0,0.1,0,0.1,0.1
				c2.1,0.6,4.3-0.7,4.8-2.8l6.1-22.6C442.8,337.5,441.9,335.5,440.2,334.8z"/>
		</g>
		<g>
			<g>
				<path class="st34" d="M212.5,325.1c0,0,2.6-3.5,12.1-4.3c9.5-0.9,81.2,0,81.2,0s4.3,0.9,6.9,4.3c2.6,3.5,26.8,34.6,26.8,34.6
					s3.5,4.3,0,6.9c-3.5,2.6-142.5,0-142.5,0s-7.8,0.9-4.3-5.2C196.1,355.3,212.5,325.1,212.5,325.1z"/>
				<rect x="197" y="343.2" class="st35" width="136.5" height="18.1"/>
				<path class="st34" d="M212.5,305.2c0,0,2.6-3.5,12.1-4.3c9.5-0.9,81.2,0,81.2,0s4.3,0.9,6.9,4.3s26.8,34.6,26.8,34.6
					s3.5,4.3,0,6.9c-3.5,2.6-142.5,0-142.5,0s-7.8,0.9-4.3-5.2C196.1,335.4,212.5,305.2,212.5,305.2z"/>
				<g>
					<rect x="197" y="349.2" class="st36" width="136.5" height="0.9"/>
					<rect x="197" y="351.8" class="st36" width="136.5" height="0.9"/>
					<rect x="197" y="354.4" class="st36" width="136.5" height="0.9"/>
					<rect x="197" y="357" class="st36" width="136.5" height="0.9"/>
					<rect x="197" y="359.6" class="st36" width="136.5" height="0.9"/>
				</g>
			</g>
			<g>
				<path class="st37" d="M213,301.2c0,0,2.4-3.2,11.2-4c8.8-0.8,75.4,0,75.4,0s4,0.8,6.4,4c2.4,3.2,24.9,32.1,24.9,32.1
					s3.2,4,0,6.4c-3.2,2.4-132.4,0-132.4,0s-7.2,0.8-4-4.8C197.8,329.3,213,301.2,213,301.2z"/>
				<rect x="198.6" y="318" class="st35" width="126.8" height="16.9"/>
				<path class="st38" d="M213,282.7c0,0,2.4-3.2,11.2-4c8.8-0.8,75.4,0,75.4,0s4,0.8,6.4,4c2.4,3.2,24.9,32.1,24.9,32.1
					s3.2,4,0,6.4c-3.2,2.4-132.4,0-132.4,0s-7.2,0.8-4-4.8C197.8,310.8,213,282.7,213,282.7z"/>
				<g>
					<rect x="198.6" y="323.6" class="st36" width="126.8" height="0.8"/>
					<rect x="198.6" y="326" class="st36" width="126.8" height="0.8"/>
					<rect x="198.6" y="328.5" class="st36" width="126.8" height="0.8"/>
					<rect x="198.6" y="330.9" class="st36" width="126.8" height="0.8"/>
					<rect x="198.6" y="333.3" class="st36" width="126.8" height="0.8"/>
				</g>
			</g>
		</g>
		<g>
			<path class="st22" d="M304.8,380.4c0.9-3.5,1.5-8.7-0.3-14.6c-0.9-2.8-3.5-4.7-6.5-4.6l-7.2,0.2c6.9,13,0.5,24.2,0.5,24.2
				l7.3-0.2C301.5,385.2,304.1,383.3,304.8,380.4z"/>
			
				<rect x="190" y="370.9" transform="matrix(0.9998 -2.128340e-02 2.128340e-02 0.9998 -7.9362 5.1772)" class="st23" width="98.4" height="9.1"/>
			
				<rect x="189.9" y="362.4" transform="matrix(0.9998 -2.128229e-02 2.128229e-02 0.9998 -7.7489 5.171)" class="st24" width="98.4" height="8.5"/>
			
				<rect x="190.2" y="380" transform="matrix(0.9998 -2.128338e-02 2.128338e-02 0.9998 -8.1029 5.1825)" class="st25" width="98.4" height="6.6"/>
			<path class="st26" d="M190.3,387.6L168.9,376l20.8-12.5C189.8,363.4,197,373.4,190.3,387.6z"/>
			<path class="st27" d="M176.9,380.3c0.6-3.5,0.4-6.6-0.1-9.1l-7.9,4.8L176.9,380.3z"/>
			<path class="st27" d="M294.7,385.4c0,0,6.4-11.1-0.5-24.2l-11.7,0.2c6.9,13,0.5,24.2,0.5,24.2L294.7,385.4z"/>
		</g>
		<g>
			<g>
				<ellipse class="st39" cx="262" cy="296.6" rx="44.7" ry="14.1"/>
				<ellipse class="st36" cx="262" cy="272.2" rx="44.7" ry="11.9"/>
				<rect x="217.3" y="272.2" class="st39" width="89.4" height="24.4"/>
				<path class="st40" d="M265.6,249.2c0,0-87.1,22.2-86.3,22.2c0.8,0,79.1,26.9,83.1,27.7c4,0.8,78.4-23,81.5-24.5
					C347.1,273,268.7,248.5,265.6,249.2z"/>
				<polygon class="st40" points="343.9,274.6 343.9,272.2 179.3,269 179.3,271.4 				"/>
				<path class="st27" d="M265.6,246.9c0,0-87.1,22.2-86.3,22.2c0.8,0,79.1,26.9,83.1,27.7c4,0.8,78.4-23,81.5-24.5
					C347.1,270.6,268.7,246.1,265.6,246.9z"/>
			</g>
			<path class="st39" d="M261.7,269.4v3.5l-79.8-0.7c0,0-2.2,0.3-3.1,3.5c-0.8,3.1,0.6,17.9,0.6,17.9s-2.5,3.1-3.9-1.2
				s0-20.2,0-20.2s0.9-3.2,5.1-2.8S261.7,269.4,261.7,269.4z"/>
			<path class="st39" d="M175.3,294.6c0,0-3.6,2.8-1.8,7c1.8,4.1,1.8,4.1,1.8,4.1l0.1-1.3l2.1,2.1l0.7-2.1l0.9,2.8
				c0,0,6.3-6.9-0.3-13.2C178.7,294.1,176.6,293.1,175.3,294.6z"/>
			<path class="st25" d="M269.5,270.9c0,1-2.6,1.9-5.8,1.9c-3.2,0-5.8-0.8-5.8-1.9s2.6-1.9,5.8-1.9
				C266.9,269,269.5,269.9,269.5,270.9z"/>
			<path class="st25" d="M179.4,294.1c0,1.3-1,2.3-2.3,2.3c-1.3,0-2.3-1-2.3-2.3c0-1.3,1-2.3,2.3-2.3
				C178.3,291.8,179.4,292.8,179.4,294.1z"/>
		</g>
		<g>
			<path class="st41" d="M252.8,169.4c0,0,0.3,2-2.3,4.7c-2.6,2.6-3.6,12.7,8.7,9C271.5,179.4,261.9,166.2,252.8,169.4z"/>
			<path class="st37" d="M253.2,183.4c0,0,5.4-2.2,10.1-1.3c0,0,2,6.4-1.1,8.5C259.1,192.8,251.9,190,253.2,183.4z"/>
			<g>
				<g>
					<path class="st28" d="M217.4,123l-8.9,2.2c-0.8,0.2-1.6-0.3-1.8-1.1l0,0c-0.2-0.8,0.3-1.6,1.1-1.8l8.9-2.2
						c0.8-0.2,1.6,0.3,1.8,1.1l0,0C218.8,121.9,218.3,122.8,217.4,123z"/>
					<path class="st42" d="M219.4,90.6c-1.9-7.8-9.9-12.5-17.6-10.3c-7.2,2-11.5,9.4-9.9,16.7c0.8,3.8,3.2,6.9,6.2,8.9
						c1.6,1,2.8,2.6,3.2,4.5l0.4,1.7c0.8,3.1,3.9,5,7,4.2l4.5-1.1c3.1-0.8,5-3.9,4.2-7l-0.4-1.7c-0.5-1.8-0.1-3.8,0.8-5.4
						C219.7,98,220.3,94.3,219.4,90.6z"/>
					<path class="st25" d="M217,85.5c0.5,0.9,0.9,1.9,1.1,2.9c0.8,3.3,0.2,6.6-1.4,9.3c-0.8,1.5-1.1,3.2-0.7,4.8l0.4,1.5
						c0.7,2.7-1,5.5-3.8,6.2l-4,1c-2.7,0.7-5.5-1-6.2-3.8l-0.4-1.5c-0.4-1.6-1.4-3-2.9-3.9c-2.7-1.7-4.8-4.5-5.5-7.9
						c-0.9-4.1,0.4-8.3,3.1-11.2c-4.1,3.3-6.2,8.7-5,14.1c0.8,3.8,3.2,6.9,6.2,8.9c1.6,1,2.8,2.6,3.2,4.5l0.4,1.7
						c0.8,3.1,3.9,5,7,4.2l4.5-1.1c3.1-0.8,5-3.9,4.2-7l-0.4-1.7c-0.5-1.8-0.1-3.8,0.8-5.4c1.8-3.1,2.4-6.8,1.5-10.5
						C219,88.7,218.1,87,217,85.5z"/>
					<path class="st43" d="M207.5,115.3l-4.1-16.7c0,0,0.9,1.8,2.2,0.6c1.3-1.2-2-4.2-1.5-1.9s4.5,3,4.8,0.1
						c0.3-2.9-3.7-2.4-1.4,0.3c2.3,2.7,3.2-0.9,3.2-0.9l4.1,16.7"/>
					<path class="st32" d="M217.1,116.7l-11.1,2.7c-1,0.2-2.1-0.4-2.3-1.4l0,0c-0.2-1,0.4-2.1,1.4-2.3l11.1-2.7
						c1-0.2,2.1,0.4,2.3,1.4l0,0C218.7,115.4,218.1,116.4,217.1,116.7z"/>
					<path class="st32" d="M217.4,118.2l-11.1,2.7c-1,0.2-2.1-0.4-2.3-1.4l0,0c-0.2-1,0.4-2.1,1.4-2.3l11.1-2.7
						c1-0.2,2.1,0.4,2.3,1.4l0,0C219.1,116.9,218.5,117.9,217.4,118.2z"/>
					<path class="st32" d="M217.8,119.7l-11.1,2.7c-1,0.2-2.1-0.4-2.3-1.4l0,0c-0.2-1,0.4-2.1,1.4-2.3l11.1-2.7
						c1-0.2,2.1,0.4,2.3,1.4l0,0C219.5,118.4,218.8,119.4,217.8,119.7z"/>
					<path class="st32" d="M218.2,121.2l-11.1,2.7c-1,0.2-2.1-0.4-2.3-1.4l0,0c-0.2-1,0.4-2.1,1.4-2.3l11.1-2.7
						c1-0.2,2.1,0.4,2.3,1.4l0,0C219.8,119.9,219.2,120.9,218.2,121.2z"/>
					<path class="st28" d="M217.1,115l-11.9,2.9c-1.1,0.3-2.2-0.4-2.5-1.5l0,0c-0.3-1.1,0.4-2.2,1.5-2.5l11.9-2.9
						c1.1-0.3,2.2,0.4,2.5,1.5l0,0C218.9,113.6,218.2,114.8,217.1,115z"/>
					<path class="st44" d="M209.9,88.1L209.9,88.1c-1.3,0.3-2.6-0.5-3-1.8l-0.3-1.2c-0.3-1.3,0.5-2.6,1.8-3l0,0
						c1.3-0.3,2.6,0.5,3,1.8l0.3,1.2C212,86.5,211.2,87.8,209.9,88.1z"/>
					<path class="st44" d="M211.6,92.6L211.6,92.6c-1,0.2-2-0.4-2.2-1.4l0,0c-0.2-1,0.4-2,1.4-2.2l0,0c1-0.2,2,0.4,2.2,1.4l0,0
						C213.2,91.4,212.6,92.4,211.6,92.6z"/>
				</g>
				<path class="st32" d="M218.6,121.4l-5.7,1.4c-0.8,0.2-1.6-0.3-1.8-1.1c0,0,0,0,0-0.1c-0.9,0-1.7-0.6-1.9-1.5
					c-0.1-0.3-0.1-0.5,0-0.8c-0.2-0.2-0.3-0.4-0.3-0.7c-0.1-0.3-0.1-0.5,0-0.8c-0.2-0.2-0.3-0.4-0.3-0.7c-0.1-0.3-0.1-0.5,0-0.8
					c-0.2-0.2-0.3-0.4-0.3-0.7l0,0c0-0.1,0-0.2,0-0.3c-0.5-0.3-0.8-0.7-0.9-1.3c-0.2-0.7,0-1.3,0.4-1.8c-0.3-0.3-0.5-0.6-0.7-1
					c-0.3-0.5-0.5-1-0.7-1.6l-0.4-1.7c-0.1-0.2-0.1-0.5-0.2-0.7c-0.5-1.3-1.3-2.5-2.5-3.4c-0.2-0.1-0.4-0.3-0.6-0.4
					c-1-0.6-1.8-1.3-2.6-2.1c-0.3-0.3-0.6-0.7-0.9-1c-0.6-0.7-1.1-1.5-1.5-2.3c-0.2-0.4-0.4-0.8-0.6-1.3c-0.3-0.7-0.5-1.4-0.6-2.1
					c-0.1-0.3-0.1-0.6-0.2-0.9c0-0.1,0-0.2,0-0.2c0-0.3-0.1-0.6-0.1-0.9c0,0,0,0,0,0c0-0.3,0-0.6,0-0.9c0-0.1,0-0.1,0-0.2
					c0-0.3,0-0.6,0-0.8c0,0,0,0,0-0.1c0-0.3,0.1-0.6,0.1-0.9c0-0.1,0-0.1,0-0.2c0-0.3,0.1-0.5,0.1-0.8c0,0,0,0,0-0.1
					c0.1-0.3,0.1-0.6,0.2-0.9c0,0,0-0.1,0-0.1c0.1-0.3,0.2-0.6,0.3-0.8c0,0,0,0,0,0c0.1-0.3,0.2-0.6,0.3-0.9c0,0,0-0.1,0-0.1
					c0.1-0.3,0.3-0.5,0.4-0.8c0,0,0,0,0,0c0.1-0.3,0.3-0.6,0.5-0.8c0,0,0,0,0,0c0.9-1.4,1.9-2.6,3.2-3.6c-3.2,1.1-5.8,3.3-7.5,6
					c0,0,0,0,0,0c-0.2,0.3-0.3,0.5-0.5,0.8c0,0,0,0,0,0c-0.1,0.3-0.3,0.5-0.4,0.8c0,0,0,0.1,0,0.1c-0.1,0.3-0.2,0.6-0.3,0.9
					c0,0,0,0,0,0c-0.1,0.3-0.2,0.5-0.3,0.8c0,0,0,0.1,0,0.1c-0.1,0.3-0.2,0.6-0.2,0.9c0,0,0,0,0,0.1c-0.1,0.3-0.1,0.5-0.1,0.8
					c0,0.1,0,0.1,0,0.2c0,0.3-0.1,0.6-0.1,0.9c0,0,0,0,0,0.1c0,0.3,0,0.6,0,0.8c0,0.1,0,0.1,0,0.2c0,0.3,0,0.6,0,0.9c0,0,0,0,0,0
					c0,0.3,0.1,0.6,0.1,0.9c0,0.1,0,0.2,0,0.2c0,0.3,0.1,0.6,0.2,0.9c0.2,0.7,0.4,1.4,0.6,2.1c0.2,0.4,0.4,0.9,0.6,1.3
					c0.4,0.8,0.9,1.6,1.5,2.3c0.3,0.4,0.6,0.7,0.9,1c0.8,0.8,1.7,1.5,2.6,2.1c0.2,0.1,0.4,0.3,0.6,0.4c1.1,0.9,2,2,2.5,3.4
					c0.1,0.2,0.1,0.5,0.2,0.7l0.4,1.7c0.1,0.6,0.4,1.1,0.7,1.6c0.2,0.4,0.5,0.7,0.7,1c-0.4,0.5-0.6,1.1-0.4,1.8
					c0.1,0.6,0.5,1,0.9,1.3c0,0.1,0,0.2,0,0.3l0,0c0.1,0.3,0.2,0.5,0.3,0.7c0,0.3,0,0.5,0,0.8c0.1,0.3,0.2,0.5,0.3,0.7
					c0,0.3,0,0.5,0,0.8c0.1,0.3,0.2,0.5,0.3,0.7c0,0.3,0,0.5,0,0.8c0.2,0.9,1,1.5,1.9,1.5c0,0,0,0,0,0.1c0.2,0.8,1,1.3,1.8,1.1
					l8.9-2.2C218.2,122.8,218.6,122.1,218.6,121.4z"/>
			</g>
			<path class="st22" d="M257.6,250.8c0,0-3.5,5.1-2.7,6c0.9,0.9,4.7-2.1,5.8-3.5c1.1-1.4-0.1-3.5-0.1-3.5L257.6,250.8z"/>
			<path class="st26" d="M255.5,223.9c0,0,1,12.8,1.4,14.3c0.4,1.6,0.3,12.1,0.8,13.4c0.6,1.2,3.1-0.7,3.1-1.5
				c0-0.8,1.5-7.9,1.7-9.6c0.1-1.7,2.1-11.7,2.2-14.5C264.8,223.1,258.7,219.2,255.5,223.9z"/>
			<path class="st22" d="M283.8,239.7c0,0,2.7,5.6,3.9,5.3c1.2-0.3,0.5-5.1-0.2-6.7c-0.7-1.7-3.1-1.6-3.1-1.6L283.8,239.7z"/>
			<g>
				<path class="st26" d="M274.1,218.4c0,4.6,0,7.5,1.5,11.8c0.7,2,8.5,5.8,10.1,7.6c1.5,1.8-0.2,2.6-2.4,2.1
					c-2.2-0.5-9.1-3.8-11.6-5.6c-2-1.4-5.7-7.1-5.6-11.9C266,217.6,270.6,215.9,274.1,218.4z"/>
			</g>
			<path class="st27" d="M253.4,183.9c0,0-9.3-2-10.5-3.5c-1.2-1.5-6.7-8.8-8.5-8.6c-1.8,0.1-2.3,1.1-2.3,2.3
				c0,1.2,7.4,10.2,8.2,10.9c0.7,0.8,10.6,7,11.9,6.5C253.5,191.1,255.4,184.4,253.4,183.9z"/>
			<path class="st26" d="M279.1,205.8c0,0-1,3.2,0.1,3.8c1.1,0.6,1.7-0.1,1.7-0.1s1.8,1.6,2.5,0.2c0.7-1.4-0.1-4.6-2.7-5.1
				C280.8,204.6,279.4,204.6,279.1,205.8z"/>
			<path class="st27" d="M263.5,190.3c0,0,8.7,3.9,9.6,5.7c0.9,1.8,4.7,10,6.5,10.2c1.8,0.3,2.5-0.6,2.7-1.7
				c0.2-1.2-5.1-11.5-5.7-12.4c-0.6-0.9-8.9-9-10.3-8.9C264.9,183.3,261.6,189.4,263.5,190.3z"/>
			<path class="st27" d="M250.5,185.7c0,0,0.6,12.1,2.6,14.5c0,0,0.8,1.8,0.8,6.3c0,4.6-2.4,12.2,0.3,20c0,0,22.9,1.8,23-6.4
				c0.1-5.2-3.4-12-6.5-15.8c-2.7-3.2-1.3-4.4-2.2-8.4c0,0,0,0,0-0.1c-0.5-2.1-0.8-11.1-1.5-12.2c-0.7-1.1-3.5-1.5-3.5-1.5
				s-2.1,6.7-4.2,6.6c-2.1-0.1-5.8-5.3-5.8-5.3S251,183.9,250.5,185.7z"/>
			<path class="st26" d="M233.9,172c0,0,1.3-3.7,0-4.4c-1.3-0.7-1.9,0-1.9,0s-2.1-1.9-2.9-0.3c-0.8,1.6-0.1,5.3,2.9,6
				C232,173.3,233.5,173.4,233.9,172z"/>
			<path class="st26" d="M257.2,183.2v-2c0,0-4.2-0.2-4.4-3.2c-0.2-3,0-1.5,0-1.5s-1.5-0.5-1.5-1c0-0.5,1.8-2.1,1.8-2.1
				s0.9-6,5.7-6.3c4.7-0.2,6.7,3.7,6.5,7c-0.2,3.3-2.5,6.3-3.5,6.4s-0.3,2.6-0.3,2.6S258.6,185.4,257.2,183.2z"/>
			<path class="st22" d="M258,164.7c0,0-7.1,1.2-5.4,4.3c1.7,3.1,6.7,3.3,6.7,3.3s0.1,2.8,1.9,3.6c0,0,1.6,4.2-1.9,8.6
				c-3.5,4.4,7.1,6.2,9.1-3.9c2-10.1-1.7-13.7-4.8-14.4c-3.2-0.7-3.9,0-3.9,0S258.9,164.5,258,164.7z"/>
			<path class="st45" d="M211.3,124.4c0,0,2.9,36.9,20,44.9c17.1,8,20.2,19.9,9.9,25.5"/>
		</g>
		<g>
			<path class="st46" d="M201.7,243.3c-0.7,0.7-1.1,1.6-1.3,2.5c-0.5,3-1.8,11.5-2.5,11.6c-0.9,0.2-11.3,4.8-11.3,5
				c0,0.3,0.3,2.8,4.1,1.9c3.9-0.8,10.9-3.6,11.5-4.3c0.5-0.7,2.7-11.3,2.3-13.5C204.2,244.8,203.5,241.5,201.7,243.3z"/>
			<g>
				<path class="st26" d="M184.6,282.3c0,0-0.7,3.6-1.4,4.1c-0.7,0.5-2.5-0.1-2.6-1.4c-0.1-1.3,1.3-5.4,1.3-5.4
					S184,279.6,184.6,282.3z"/>
				<path class="st47" d="M204.5,262.9c0,0-18.5-1-20.1,1.5c-1.6,2.4-1.4,5,5.7,4.8c7.1-0.2,14.9,1,15.8-1.6
					C206.9,265.1,204.5,262.9,204.5,262.9z"/>
				<path class="st47" d="M185.7,264.2c0,0-1.2-0.4-2,2.3c-0.8,2.7-3.8,15.7-3.5,16c0.3,0.3,3.5,1.9,5.6,1.6c0,0,2.8-12.1,3.2-14.2
					C189.4,267.9,188.5,263.9,185.7,264.2z"/>
				<g>
					<g>
						<path class="st22" d="M184.1,285.3c0,0,0.2,2.1-1.6,4c-1.8,1.9-10.5-3.6-10.9-6.4c-0.4-2.8,8.8,0.4,8.8,0.4
							S181.6,285.3,184.1,285.3z"/>
						<path class="st48" d="M177.8,284.4c-3.2-2.6-5.6-2.4-5.8-2.3c-0.3,0.2-0.5,0.5-0.4,0.9c0.3,2.6,7.8,7.5,10.4,6.7
							C183.3,288.5,181,287,177.8,284.4z"/>
					</g>
				</g>
			</g>
			<path class="st22" d="M208.3,240.3c3.6-1,7.2,1.5,7.6,5.2c0.7,6.8,1.1,18.2-3.1,22c-6.2,5.5-13.8,3.7-13.8,3.7s2.8-23.4,2.7-27
				C201.6,243.2,203.9,241.5,208.3,240.3z"/>
			<g>
				<path class="st26" d="M193.1,286.1c0,0-0.7,3.6-1.4,4.1c-0.7,0.5-2.5-0.1-2.6-1.4c-0.1-1.3,1.3-5.4,1.3-5.4
					S192.5,283.3,193.1,286.1z"/>
				<path class="st37" d="M212.9,266.5c0,0,0.6,7-6.8,6.7c-7.4-0.3-13.8,0.1-13.8-1.3c0-1.5-1.5-5,6.4-5.9
					C206.5,265,212.9,266.5,212.9,266.5z"/>
				<path class="st37" d="M194.2,267.2c0,0-1.2-0.4-2,2.3c-0.8,2.7-3.8,15.7-3.5,16c0.3,0.3,3.5,1.9,5.6,1.6c0,0,2.8-12.1,3.2-14.2
					C197.9,270.8,197,266.8,194.2,267.2z"/>
				<g>
					<g>
						<path class="st22" d="M192.7,289.2c0,0,0.2,2.1-1.6,4c-1.8,1.9-10.5-3.6-10.9-6.4c-0.4-2.8,8.8,0.4,8.8,0.4
							S190.2,289.2,192.7,289.2z"/>
						<path class="st48" d="M186.4,288.2c-3.2-2.6-5.6-2.4-5.8-2.3c-0.3,0.2-0.5,0.5-0.4,0.9c0.3,2.6,7.8,7.5,10.4,6.7
							C191.9,292.4,189.6,290.9,186.4,288.2z"/>
					</g>
				</g>
			</g>
			<path class="st26" d="M205.6,242.6l-0.9-2.2c0,0-4.8,1.7-6.5-1.6c-1.7-3.3-1.7-5.4-1.7-5.4s-1.7-7.3,3.5-9.8
				c5.3-2.5,9.4,1.2,10.7,5c1.3,3.8,0,8.3-1,9c-1,0.6,0.8,3.1,0.8,3.1S208.2,244.4,205.6,242.6z"/>
			<path class="st27" d="M204.8,227.6c0,0-6.1,3.6-9.6,2.3c-3.6-1.3-3.2-5.2-1.6-6.2c1.7-1,2.2,0,2.2,0s2-1.5,2.5-0.5
				c0,0,5.5-2.1,6.5-1.6s1,0.5,1,0.5s-1.3-1.2-0.7-1.3c0.6-0.1,1.4,0.8,1.4,0.8s2.3-0.1,2.1,0.3c-0.2,0.5-1.1,0.7-1.1,0.7
				s3.2,1.5,3.6,6.5c0.4,5,0,5.9,0,5.9s-0.1,4.7-1.9,3.2c-1.7-1.5,0.1-3.7,0.1-4.2c0-0.5,0.7-2.7-0.2-3.5c-0.9-0.8-1.7,0.7-1.7,0.7
				s0.8,2.2,0.4,2.4c-0.3,0.2-1.4-0.1-1.5-0.8c-0.1-0.7-0.2-2.1-0.3-2.4c-0.1-0.3-1.4-0.8-1.5-1.2
				C204.6,229,204.8,227.6,204.8,227.6z"/>
			<polygon class="st28" points="199,268.1 210,264.6 197.8,261.5 183.7,264.3 			"/>
			<path class="st48" d="M212.3,243.1c0,0-1.8,12.5-2.7,12.7c-0.9,0.2-11.3,4.8-11.3,5c0,0.3,0.3,2.8,4.1,1.9
				c3.9-0.8,10.9-3.6,11.5-4.3c0.5-0.7,2.7-11.3,2.3-13.5C215.9,242.7,212.5,241.8,212.3,243.1z"/>
			<path class="st26" d="M199,260.9c0,0-3.5-0.2-4.1,1.1c-0.6,1.3,0.3,2.6,2,2.5c1.8,0,4.1-1.6,3.8-2.2
				C200.6,261.9,199.5,261.1,199,260.9z"/>
			<polygon class="st32" points="181.2,251 197.9,254.6 199,268.1 183.7,264.3 			"/>
		</g>
		<g>
			<path class="st26" d="M70.3,318.1l-2.1,1.8c0,0-3.1,0.1-4.2,0.4c-1.1,0.3-3.1,1.5-2.8,1.9c0,0-1.5,1.6-1.1,1.9
				c0,0,0.2,1.1,0.8,1.1c0,0,0.5,0.8,1.5,0.6c0,0,1.6-1.2,2.8-1.2c1.2,0,1.9,0.1,1.9,0.1s-1.8,0.4-2.3,1.1c-0.5,0.8-0.5,1.2-0.2,1.4
				c0.3,0.2,1.6-0.9,2.7-0.9c1.1,0,3.1-1.3,3-2.5c0-1.2,2.4-2.9,3-3.8C74,319,71.5,317.1,70.3,318.1z"/>
			<path class="st24" d="M108.8,310.8c0,0,2.4,8,3.7,8.4c1.3,0.4,5.4-10.2,5.4-10.2s0.9-1.4,4.2,0s-6.9,18-8.4,18
				c-1.5,0-9.5-3.9-8.9-6.8C105.3,317.1,106.7,310.8,108.8,310.8z"/>
			<g>
				<path class="st26" d="M95.9,375.9c0,0-0.5,3.1,0.3,4.2c0.8,1.1,1.9,0.5,2.2-0.6c0.4-1.2,0.3-4.4,0.3-4.4S96.8,374.5,95.9,375.9z
					"/>
				<g>
					<g>
						<path class="st47" d="M99.2,378.7c0.5-0.2,1-0.2,1.5,0c1.6,0.6,4.5,1.6,5.6,1.8c1.5,0.3,4.1,1.5,4.3,3
							c0.1,1.5-9.9,0.8-11.4,0.7c-1.5-0.1-3.9,0.2-4-0.8c-0.1-0.7-0.1-2.8,0-4.1c0-0.5,0.5-0.9,1-0.8
							C97.1,378.7,98.4,379,99.2,378.7z"/>
					</g>
				</g>
			</g>
			<g>
				<path class="st26" d="M76.1,375.1c0,0-1.3,2.9-0.8,4.2c0.4,1.3,1.7,1,2.3,0c0.6-1,1.5-4.2,1.5-4.2S77.3,374,76.1,375.1z"/>
				<g>
					<g>
						<path class="st47" d="M77.8,378.3c0.5-0.2,1-0.2,1.5,0c1.6,0.6,4.5,1.6,5.6,1.8c1.5,0.3,4.1,1.5,4.3,3
							c0.1,1.5-9.9,0.8-11.4,0.7c-1.5-0.1-3.9,0.2-4-0.8c-0.1-0.7-0.1-2.8,0-4.1c0-0.5,0.5-0.9,1-0.8
							C75.7,378.4,77,378.6,77.8,378.3z"/>
					</g>
				</g>
			</g>
			<g>
				<path class="st48" d="M82.3,329c0,0,0.9,5.7,3.2,7.9c0,0,13.6,15,14.3,17.8c0.7,2.9-4.4,21.8-4.5,22c-0.1,0.2,3.8,0.4,4.1-1.4
					c0.4-1.8,6.6-21.3,6.2-22.7c-0.4-1.4-11.7-18.3-11.7-18.3s0.6-5.5-0.5-7.1C92.4,325.6,82.3,329,82.3,329z"/>
				<path class="st22" d="M94,327.8c0,0-11.6,0.6-11.7,2.4l2.4,29.5l-9.4,16.1c0,0,1.5,1.8,3.7,0.9c2.2-2.9,11.6-14.5,12.4-16.8
					s-1.1-22.3-1.1-22.3s3.8-2.3,3.9-4.2C94.2,331.4,94,327.8,94,327.8z"/>
			</g>
			<path class="st49" d="M103,305.2c0,0-8.4-2.4-9.6-0.6c-1.2,1.9-9.7,23.4-8.4,25.6c1.3,2.2,7.8,6,9.4,4.8
				c1.6-1.2,13.9-20.1,14.6-21.9c0.7-1.8-0.9-4.9-2.5-5.8C104.9,306.4,103,305.2,103,305.2z"/>
			<path class="st23" d="M96.4,320.3c0,0-4.5,12.2-6.9,14.5c0,0-4.9,0.5-7.8-5.1c0,0,5.3-12.3,5.9-14.1c0.6-1.8,4.8-11,4.8-11
				s0.8-3.1,10.6,0.6L96.4,320.3z"/>
			<path class="st23" d="M97.5,323.1c0,0-3.4,11.4-3.3,12c0.1,0.6,0.7,1.6,1.9,2.5c1.2,0.9,8.5-17.4,8.5-17.4s4.9-6.1,4.5-7.5
				c-0.3-1.4-0.2-3.7-0.2-3.7s-2.4-0.5-4.4,3C102.7,315.4,97.5,323.1,97.5,323.1z"/>
			<path class="st26" d="M106.8,308.8l0.9-2.3c0,0,5,1.8,6.7-1.6c1.7-3.5,1.8-5.6,1.8-5.6s1.8-7.6-3.7-10.2
				c-5.5-2.6-9.7,1.2-11.1,5.2c-1.4,3.9,0,8.6,1,9.3c1.1,0.7-0.9,3.3-0.9,3.3S104.1,310.7,106.8,308.8z"/>
			<path class="st27" d="M107.7,293.2c0,0,6.3,3.8,10,2.4c3.7-1.4,3.4-5.4,1.6-6.4c-1.7-1.1-2.3,0-2.3,0s-2-1.5-2.6-0.5
				c0,0-5.7-2.2-6.8-1.7c-1.1,0.5-1.1,0.5-1.1,0.5s1.4-1.2,0.7-1.4c-0.6-0.1-1.5,0.9-1.5,0.9s-2.4-0.1-2.2,0.4
				c0.2,0.5,1.1,0.7,1.1,0.7s-3.4,1.6-3.8,6.7c-0.4,5.1,0,6.1,0,6.1s0.1,4.9,1.9,3.3c1.8-1.5-0.1-3.8-0.1-4.3c0-0.5-0.7-2.8,0.2-3.6
				c0.9-0.9,1.8,0.7,1.8,0.7s-0.8,2.3-0.5,2.5c0.4,0.2,1.4-0.1,1.6-0.9c0.1-0.7,0.2-2.2,0.4-2.5c0.1-0.3,1.4-0.9,1.6-1.2
				C107.9,294.7,107.7,293.2,107.7,293.2z"/>
			<path class="st24" d="M103.5,304.3c0,0-4-0.2-4.1,0.1c-0.2,0.3,1,2.4,1,2.4s-4.6,6.5-4.4,9.9c0.3,3.3,0,5.2,0,5.2
				S103.9,305.5,103.5,304.3z"/>
			<path class="st24" d="M107.3,306.6c0,0,2.5,3.1,2.3,3.4c-0.2,0.3-2.6,0.6-2.6,0.6s-2.6,7.6-5.4,9.3c-2.8,1.8-4.2,3.1-4.2,3.1
				S106.2,307.1,107.3,306.6z"/>
			<path class="st25" d="M93.3,304c0,0-13.1,2.8-14.3,3.7s-10.6,10-10.6,10s1.1,4.3,4.4,3.5c3.2-0.7,6.8-7.9,8.1-7.9
				c1.3,0,12-3.1,13.6-3.7C96,309.1,95.5,303.5,93.3,304z"/>
			<path class="st26" d="M119.2,310.5l0.5-2c0,0-1.3-1.3-1.3-1.8s0.7-3.1,1.3-3.1c0.7,0,3.7-1.7,4.3-0.4c0.6,1.3,0,1.3,0,1.3
				s1,1.2,0.3,2.2c0,0-0.1,1.3-0.3,1.8c-0.2,0.5-1.7,0.8-1.7,0.8l-0.5,1.7C121.7,311.1,119.6,312.7,119.2,310.5z"/>
			<g>
				<g>
					<path class="st27" d="M121.5,304.6L121.5,304.6c-0.4,0-0.6-0.3-0.6-0.6v-5.2c0-0.4,0.3-0.6,0.6-0.6l0,0c0.4,0,0.6,0.3,0.6,0.6
						v5.2C122.1,304.3,121.8,304.6,121.5,304.6z"/>
					<circle class="st27" cx="121.5" cy="298.5" r="3.4"/>
				</g>
				<circle class="st3" cx="121.5" cy="298.5" r="2.4"/>
			</g>
		</g>
		<g>
			<g>
				<path class="st50" d="M350.8,311.9c0,0,2.3,9,4.6,10.4c2.3,1.5,10.2-3.8,10.2-3.8s0.4-2.7,1.1-3.1c0.7-0.4,1.9,0.7,1.9,0.7
					s4.1-3.1,5.2-3.2c1.1-0.1-2.1,3-2.1,3s0.1,3-1,3.8c-1.1,0.8-3.8,1.3-3.8,1.3s-6.8,7-11.6,6.7c-4.8-0.3-11.2-12.1-11.2-12.1
					S347.4,310.7,350.8,311.9z"/>
				<path class="st51" d="M362.4,363.3l1.4,3.1l3.9-1l-3.2-4.5C364.5,361,360.9,360.2,362.4,363.3z"/>
				<path class="st24" d="M342.1,330.6c0,0,11.8,2.9,16,9.2c4.2,6.3,9.3,21.9,9.3,21.9l-6,3.2L351,346l-13.7-7.6
					C337.3,338.4,338,329.3,342.1,330.6z"/>
				<polygon class="st35" points="365,317.7 364.1,321.6 372.6,316.3 373.3,312.4 				"/>
				<path class="st48" d="M342.7,309.6c0,0,3.6-4.9,6.5-2.6c3,2.4,4,6.4,4,6.4l-7.2,5.3C345.9,318.8,341.8,317.8,342.7,309.6z"/>
				<path class="st51" d="M347.3,302.6c0,0,2-0.1,2.2-1.5s0.9-9.1,8.8-7.6c5.7,1,5.8,6.3,5.8,7.7c0,1.3-2,6.2-1.7,7.3
					c0.3,1.1-2.1,0-2.1,0s-2.4,3.2-3.2,3.4c-0.8,0.2-4.8-2.6-4.9-4c-0.2-2.4-2.5,1.2-3.6,0.9C347.5,308.3,345.7,304.7,347.3,302.6z"
					/>
				<path class="st22" d="M347.3,302.6c0,0-14.4,0.8-17.2,14.8c-2.8,14,0,22.6,0,22.6s8.5,0.6,12.4-0.7c4-1.3-2.4-11.2,5.1-18.4
					C353.7,315.2,347.3,302.6,347.3,302.6z"/>
				<path class="st51" d="M348.9,314.7c0,0,2.3,9,4.6,10.4c2.3,1.5,10.2-3.8,10.2-3.8s0.4-2.7,1.1-3.1c0.7-0.4,1.9,0.7,1.9,0.7
					s4.1-3.1,5.2-3.2c1.1-0.1-2.1,3-2.1,3s0.1,3-1,3.8c-1.1,0.8-3.8,1.3-3.8,1.3s-6.8,7-11.6,6.7c-4.8-0.3-11.2-12.1-11.2-12.1
					S345.4,313.4,348.9,314.7z"/>
				<path class="st48" d="M339,311.1c0,0,3.6-4.9,6.5-2.6c3,2.4,4,6.4,4,6.4l-7.2,5.3C342.2,320.2,338.1,319.2,339,311.1z"/>
				<path class="st51" d="M356,366.2l1.4,3.1l3.9-1l-3.2-4.5C358.1,363.9,354.6,363.1,356,366.2z"/>
				<path class="st25" d="M335.7,333.5c0,0,11.8,2.9,16,9.2c4.2,6.3,9.3,21.9,9.3,21.9l-6,3.2l-10.4-18.9l-13.7-7.6
					c0,0-1.6-2-1.2-3.7C330.3,335.1,333.3,332.7,335.7,333.5z"/>
				<path class="st34" d="M356.9,368.8c0,0,2.7,0.2,4.5-0.9c0,0,7.1,4.2,8.6,4.7c1.5,0.6,1.4,2.5,0,2.5c-1.4,0.1-12.5-1-13.1-1.7
					C356.3,372.9,356,369.5,356.9,368.8z"/>
				<path class="st34" d="M363.1,365.2c0,0,2.7,0.2,4.5-0.9c0,0,7.1,4.2,8.6,4.7c1.5,0.6,1.4,2.5,0,2.5c-1.4,0.1-12.5-1-13.1-1.7
					C362.5,369.2,362.3,365.9,363.1,365.2z"/>
				<path class="st34" d="M348.8,302.1c0,0-1,0.8-0.4-2.6c0.6-3.4,3.5-7.3,4.3-7.2c0,0-1.6-0.8-0.7-1.1c0.9-0.3,1.8,0.2,1.8,0.2
					s1.8-1.7,2.2-1c0.4,0.7-0.6,1.3-0.6,1.3s2.7-1.3,4.9,0.9c2.2,2.2,5.1,3,5.1,3s2.1-0.4,2.3,1.9c0.2,2.3-1.8,1.3-1.8,1.3
					s3,1.8,0.9,3.3c-2,1.5-2.8,0.9-4.4,0.5c-1.6-0.5-2-1.4-2.8-1.6c-0.8-0.2-2.5,0-2.5,0s-1,2.8-1.7,2.6c-0.6-0.1-1.2-0.3-0.9-1.2
					c0.4-0.9,1.2-2.1,0.9-2.7s-2.9-0.5-3.1,1.7c-0.2,2.3-2.2,3.3-2.8,2.8C348.9,304,348.8,302.1,348.8,302.1z"/>
			</g>
		</g>
	</g>
</g>
<g id="DESIGNED_BY_FREEPIK" class="st0">
	<g class="st52">
		<g id="XMLID_319_">
			<g id="XMLID_338_">
				<path id="XMLID_346_" class="st53" d="M260.1,475.2c-0.4,0.4-0.8,0.9-1.1,1.5l-0.5-0.2c-0.1-0.3-0.3-0.5-0.7-0.5
					c-0.3,0-0.6,0.3-0.5,0.7c0,0.3,0.3,0.6,0.7,0.5c0.1,0,0.1,0,0.2-0.1l0.5,0.2c-0.3,0.6-0.4,1.1-0.5,1.7l0.7,0.1
					c0.2-1.3,0.8-2.5,1.8-3.5L260.1,475.2z"/>
				<path id="XMLID_345_" class="st53" d="M265.6,472.9c-0.2,0-0.3,0-0.5,0l-0.1-0.6c0.2-0.1,0.3-0.4,0.3-0.6c0-0.4-0.4-0.7-0.8-0.6
					c-0.4,0-0.7,0.4-0.6,0.8c0,0.3,0.2,0.5,0.4,0.6l0.1,0.6c-0.7,0.1-1.4,0.3-2.1,0.6l0.3,0.7c0.9-0.4,1.9-0.7,3-0.7
					c0.5,0,1,0.1,1.5,0.2l0.2-0.7C266.7,473,266.1,472.9,265.6,472.9z"/>
				<path id="XMLID_344_" class="st53" d="M272.2,475.5c0.3,0,0.6-0.3,0.5-0.7c0-0.3-0.3-0.6-0.7-0.5c-0.3,0-0.5,0.3-0.5,0.6
					l-0.4,0.4c-0.4-0.4-0.9-0.8-1.4-1.1l-0.4,0.6c1.1,0.7,2,1.7,2.6,2.9l0.7-0.3c-0.3-0.6-0.6-1.1-0.9-1.5l0.4-0.4
					C272.1,475.5,272.1,475.5,272.2,475.5z"/>
				<path id="XMLID_343_" class="st53" d="M265,483.1c-0.4,0-0.8,0-1.2,0c-0.9,0-1.7-0.1-2.5-0.2c-0.4-0.1-0.8-0.2-1.3-0.3
					c1,1.9,3.1,3.1,5.4,3.1c2.9,0,5.3-1.9,5.9-4.5c-0.7,0.4-1.5,0.8-2.5,1.1C267.8,482.8,266.5,483.1,265,483.1z"/>
				<path id="XMLID_339_" class="st53" d="M265.6,474.4c-3.4,0-6.1,2.7-6.1,5.9c0,0.4,0,0.8,0.1,1.3c0.7,0.5,2.7,0.9,5.3,0.7
					c2.9-0.2,5.3-1,6.7-2.2c0-0.2,0-0.4,0-0.6C271.2,476.7,268.7,474.4,265.6,474.4z M263.4,481c-1,0-1.8-0.8-1.8-1.8
					c0-1,0.8-1.8,1.8-1.8c1,0,1.8,0.8,1.8,1.8C265.3,480.1,264.5,481,263.4,481z M268.2,480.1c-0.8,0-1.4-0.6-1.4-1.4
					s0.6-1.4,1.4-1.4c0.8,0,1.4,0.6,1.4,1.4S268.9,480.1,268.2,480.1z"/>
			</g>
			<path id="XMLID_336_" class="st53" d="M281.6,476.3c-0.3-0.1-0.8-0.3-1.4-0.2c-0.6,0.1-0.8,0.3-0.8,1v0.9h2.2v1.7h-2.2v5.5h-1.9
				v-5.5h-1.3v-1.7h1.3v-0.9c0-1.7,0.9-2.8,2.6-2.8c0.6,0,1.2,0.1,1.6,0.3L281.6,476.3z"/>
			<path id="XMLID_334_" class="st53" d="M286.3,479.6c-0.2,0-0.4,0-0.5,0c-0.9,0-1.5,0.5-1.5,1.6v3.9h-1.9v-7.2h1.9v0.8
				c0.5-0.7,1.1-1,2-1c0.4,0,0.8,0.1,1.1,0.3L286.3,479.6z"/>
			<path id="XMLID_331_" class="st53" d="M294,481.5c0,0.2,0,0.5,0,0.7h-5.1c0.2,1,0.9,1.5,1.8,1.5c0.6,0,1.3-0.3,1.8-0.7l1.1,1.2
				c-0.8,0.7-1.9,1.1-3.1,1.1c-2.2,0-3.7-1.5-3.7-3.8c0-2.3,1.5-3.8,3.6-3.8C292.5,477.8,294,479.3,294,481.5z M288.9,480.9h3.2
				c-0.2-0.9-0.7-1.4-1.6-1.4C289.6,479.4,289,480,288.9,480.9z"/>
			<path id="XMLID_328_" class="st53" d="M301.6,481.5c0,0.2,0,0.5,0,0.7h-5.1c0.2,1,0.9,1.5,1.8,1.5c0.6,0,1.3-0.3,1.8-0.7l1.1,1.2
				c-0.8,0.7-1.9,1.1-3.1,1.1c-2.2,0-3.7-1.5-3.7-3.8c0-2.3,1.5-3.8,3.6-3.8C300.2,477.8,301.6,479.3,301.6,481.5z M296.5,480.9h3.2
				c-0.2-0.9-0.7-1.4-1.6-1.4C297.2,479.4,296.7,480,296.5,480.9z"/>
			<path id="XMLID_325_" class="st53" d="M310,481.5c0,2.2-1.5,3.8-3.5,3.8c-1,0-1.6-0.4-2.1-0.9v3.7h-1.9v-10.1h1.9v0.8
				c0.5-0.6,1.2-1,2.1-1C308.5,477.8,310,479.4,310,481.5z M304.3,481.5c0,1.1,0.7,2,1.8,2c1.1,0,1.9-0.9,1.9-2c0-1.1-0.7-2-1.9-2
				C305,479.6,304.3,480.4,304.3,481.5z"/>
			<path id="XMLID_322_" class="st53" d="M313.1,475.6c0,0.7-0.5,1.2-1.2,1.2c-0.7,0-1.2-0.5-1.2-1.2c0-0.7,0.5-1.2,1.2-1.2
				C312.5,474.4,313.1,474.9,313.1,475.6z M312.8,485.1h-1.9v-7.2h1.9V485.1z"/>
			<path id="XMLID_320_" class="st53" d="M316,480.5l2.7-2.6h2.4l-3.5,3.4l3.5,3.8h-2.4l-2.7-2.9v2.9h-1.9v-10.7h1.9V480.5z"/>
		</g>
		<g>
			<path class="st53" d="M184.4,485.1V484c-0.5,0.7-1.4,1.2-2.4,1.2c-1.8,0-3.1-1.4-3.1-3.7c0-2.3,1.3-3.7,3.1-3.7
				c1,0,1.8,0.5,2.4,1.2v-3.8h1.1v9.8H184.4z M184.4,483.1v-3.2c-0.4-0.6-1.2-1.1-2.1-1.1c-1.4,0-2.3,1.2-2.3,2.7
				c0,1.6,0.8,2.7,2.3,2.7C183.2,484.3,184,483.8,184.4,483.1z"/>
			<path class="st53" d="M186.9,481.5c0-2.1,1.5-3.7,3.5-3.7c2.1,0,3.4,1.7,3.4,3.8v0.3h-5.7c0.1,1.3,1,2.4,2.5,2.4
				c0.8,0,1.6-0.3,2.2-0.9l0.5,0.7c-0.7,0.7-1.7,1.1-2.8,1.1C188.4,485.2,186.9,483.7,186.9,481.5z M190.4,478.7
				c-1.5,0-2.3,1.3-2.3,2.4h4.6C192.7,480,192,478.7,190.4,478.7z"/>
			<path class="st53" d="M194.6,484.1l0.6-0.8c0.5,0.5,1.4,1,2.3,1c1.1,0,1.7-0.5,1.7-1.2c0-1.7-4.4-0.7-4.4-3.3c0-1.1,1-2,2.6-2
				c1.2,0,2.1,0.5,2.6,1l-0.5,0.8c-0.4-0.5-1.2-0.9-2.1-0.9c-1,0-1.6,0.5-1.6,1.1c0,1.6,4.4,0.5,4.4,3.3c0,1.2-1,2.1-2.8,2.1
				C196.3,485.2,195.3,484.9,194.6,484.1z"/>
			<path class="st53" d="M201.5,476.2c0-0.4,0.3-0.7,0.7-0.7c0.4,0,0.7,0.3,0.7,0.7c0,0.4-0.3,0.7-0.7,0.7
				C201.8,477,201.5,476.6,201.5,476.2z M201.7,485.1V478h1.1v7.1H201.7z"/>
			<path class="st53" d="M204.6,486.9l0.6-0.8c0.6,0.7,1.3,1,2.3,1c1.2,0,2.3-0.6,2.3-2.1v-1c-0.5,0.7-1.4,1.3-2.4,1.3
				c-1.8,0-3.1-1.4-3.1-3.7c0-2.3,1.3-3.7,3.1-3.7c1,0,1.8,0.5,2.4,1.2V478h1.1v6.9c0,2.3-1.6,3.1-3.4,3.1
				C206.2,487.9,205.4,487.7,204.6,486.9z M209.7,483v-3.1c-0.4-0.6-1.2-1.1-2.1-1.1c-1.4,0-2.3,1.1-2.3,2.7c0,1.6,0.8,2.7,2.3,2.7
				C208.5,484.2,209.3,483.6,209.7,483z"/>
			<path class="st53" d="M217.4,485.1v-4.6c0-1.2-0.6-1.6-1.6-1.6c-0.9,0-1.7,0.5-2.1,1.1v5.2h-1.1V478h1.1v1
				c0.5-0.6,1.5-1.2,2.5-1.2c1.5,0,2.3,0.7,2.3,2.3v5H217.4z"/>
			<path class="st53" d="M219.9,481.5c0-2.1,1.5-3.7,3.5-3.7c2.1,0,3.4,1.7,3.4,3.8v0.3h-5.7c0.1,1.3,1,2.4,2.5,2.4
				c0.8,0,1.6-0.3,2.2-0.9l0.5,0.7c-0.7,0.7-1.7,1.1-2.8,1.1C221.4,485.2,219.9,483.7,219.9,481.5z M223.4,478.7
				c-1.5,0-2.3,1.3-2.3,2.4h4.6C225.7,480,225,478.7,223.4,478.7z"/>
			<path class="st53" d="M233.4,485.1V484c-0.5,0.7-1.4,1.2-2.4,1.2c-1.8,0-3.1-1.4-3.1-3.7c0-2.3,1.3-3.7,3.1-3.7
				c1,0,1.8,0.5,2.4,1.2v-3.8h1.1v9.8H233.4z M233.4,483.1v-3.2c-0.4-0.6-1.2-1.1-2.1-1.1c-1.4,0-2.3,1.2-2.3,2.7
				c0,1.6,0.8,2.7,2.3,2.7C232.1,484.3,233,483.8,233.4,483.1z"/>
			<path class="st53" d="M239.7,485.1v-9.8h1.1v3.8c0.6-0.8,1.4-1.2,2.4-1.2c1.8,0,3.1,1.5,3.1,3.7c0,2.3-1.3,3.7-3.1,3.7
				c-1,0-1.9-0.5-2.4-1.2v1.1H239.7z M242.9,484.3c1.4,0,2.3-1.2,2.3-2.7c0-1.6-0.8-2.7-2.3-2.7c-0.9,0-1.7,0.5-2.1,1.1v3.2
				C241.2,483.8,242,484.3,242.9,484.3z"/>
			<path class="st53" d="M247.5,486.8c0.2,0.1,0.4,0.1,0.6,0.1c0.5,0,0.8-0.2,1.1-0.7l0.5-1.1l-3-7.1h1.2l2.4,5.8l2.3-5.8h1.2
				l-3.5,8.5c-0.4,1-1.1,1.4-2.1,1.4c-0.2,0-0.6,0-0.8-0.1L247.5,486.8z"/>
		</g>
	</g>
</g>
</svg>
