<?xml version="1.0" encoding="utf-8"?>
<!-- Generator: Adobe Illustrator 22.0.1, SVG Export Plug-In . SVG Version: 6.00 Build 0)  -->
<svg version="1.1" xmlns="http://www.w3.org/2000/svg" xmlns:xlink="http://www.w3.org/1999/xlink" x="0px" y="0px"
	 viewBox="0 0 500 500" style="enable-background:new 0 0 500 500;" xml:space="preserve">
<style type="text/css">
	.st0{display:none;}
	.st1{display:inline;fill:#FFFFFF;}
	.st2{display:inline;fill:#EAFAF6;}
	.st3{fill:#D8E8E4;}
	.st4{fill:#F1C550;}
	.st5{fill:#F0BF41;}
	.st6{fill:#F0D286;}
	.st7{fill:#D17A3D;}
	.st8{fill:#D97F3F;}
	.st9{fill:#FFD461;}
	.st10{fill:#DB894F;}
	.st11{fill:#4D2000;}
	.st12{fill:#692B00;}
	.st13{fill:#B5F0FF;}
	.st14{fill:#96E1F5;}
	.st15{fill:#E3945D;}
	.st16{fill:#3DBCEA;}
	.st17{fill:#133C6B;}
	.st18{fill:#0F2F54;}
	.st19{fill:#174B87;}
	.st20{fill:#133D6E;}
	.st21{fill:#FAB66E;}
	.st22{fill:#FFBE78;}
	.st23{fill:#EA4C4C;}
	.st24{fill:#EA5757;}
	.st25{fill:#FFB15E;}
	.st26{fill:#05937E;}
	.st27{fill:#00806C;}
	.st28{fill:#FFC485;}
	.st29{fill:#06AB93;}
	.st30{fill:#FAAC5A;}
	.st31{fill:#F26E18;}
	.st32{fill:#FF8433;}
	.st33{fill:#2660A4;}
	.st34{fill:#2B6BB8;}
	.st35{fill:#261000;}
	.st36{fill:#3D1900;}
	.st37{fill:#003B31;}
	.st38{fill:#006656;}
	.st39{fill:#005446;}
	.st40{fill:#007866;}
	.st41{fill:#006355;}
	.st42{fill:#8EC424;}
	.st43{fill:#9AD12C;}
	.st44{fill:#8DC225;}
	.st45{display:inline;}
	.st46{fill:#1C1C1B;}
</style>
<g id="BACKGROUND" class="st0">
	<rect class="st1" width="500" height="500"/>
	<path class="st2" d="M437.8,238.1c-0.4-3.2-1.4-6.3-2.9-9.2c-1.5-2.9-3.6-5.5-6.3-7.5c-2.7-2-5.9-3.2-9.1-3.7
		c-3.2-0.5-6.5-0.3-9.6,0.3c-3.1,0.5-6.1,1.4-9,2.4c-5.8,2.1-11.2,4.9-16.4,8c-5.2,3.1-10.2,6.5-15.1,10c-10.8,8-21,16.7-30.8,25.9
		c-20,15.8-35.5,31.2-35.5,31.2s73.6-167.1,38.4-198.8c-26.4-23.7-75.1,50.5-97.5,109.4c-4.9-12.9-11.1-26.5-18-39.7
		c-2.2-4.9-4.4-9.8-6.9-14.7c-2.7-5.5-5.6-10.9-8.6-16.2c-6.1-10.6-12.7-20.9-20.3-30.6c-3.8-4.8-7.9-9.5-12.3-13.8
		c-2.2-2.2-4.6-4.2-7-6.1c-2.5-1.9-5.1-3.7-7.9-5.1c-2.8-1.5-5.9-2.6-9.2-3.1c-3.3-0.5-6.8-0.2-10,1.1c-3.2,1.3-5.9,3.4-8,6
		c-1,1.3-2,2.7-2.7,4.1c-0.7,1.5-1.4,2.9-1.9,4.5c-2.1,6.1-2.6,12.5-2.5,18.7c0.1,6.2,0.7,12.4,1.7,18.4c1,6.1,2.2,12.1,3.6,18
		c1.4,5.9,3.1,11.8,4.8,17.7c3.2,10.7,6.7,21.3,10.5,31.8c14.2,49.8,35.6,98.4,35.6,98.4S90.9,202,66.1,239
		c-24.8,37,68.8,119.8,68.8,119.8c-3-1.8-5.9-3.4-8.6-4.7c-1.5-1-3.1-1.9-4.7-2.8c-1.4-0.8-2.9-1.5-4.3-2.2c-1.5-0.7-3-1.3-4.5-1.8
		c-3.1-1.1-6.2-2-9.5-2.5c-3.4-0.6-7-0.3-10.3,0.9c-6.7,2.2-11.9,7.9-13.9,14.6c-1,3.4-1.1,7-0.4,10.4l0.3,1.3l0.4,1.3
		c0.3,0.8,0.6,1.6,0.8,2.3l0.9,2.3l1,2.2c5.8,11.8,14.5,21.7,23.8,30.5c9.4,8.8,19.6,16.6,30.1,23.8c0.1,0.1,0.2,0.1,0.3,0
		c0,0,0,0,0,0c23.2,18,45.3,29.8,45.3,29.8h50.6h23.6h50.6c0,0,79.1-42.1,95-89.2c4.8-14.1-7-28.4-21.7-26.4
		c-7.3,1-16.2,3.9-26.6,10.3c0,0,10.4-9.2,23.4-22.8c0,0,0.1-0.1,0.1-0.1c4.4-4.1,8.6-8.3,12.8-12.6c8.3-8.6,16.4-17.6,23.7-27.2
		c7.3-9.5,14.1-19.6,19.2-30.8c2.5-5.6,4.5-11.4,5.3-17.7C438.1,244.5,438.2,241.3,437.8,238.1z M95.6,394.2
		c-3.8-5-7.2-10.3-9.8-15.9l-0.9-2.1l-0.9-2.1c-0.3-0.7-0.5-1.5-0.8-2.2l-0.3-1l-0.2-1.1c-0.6-2.8-0.4-5.8,0.4-8.5
		c0.8-2.8,2.2-5.3,4.2-7.5c2-2.1,4.4-3.8,7.1-4.8c2.7-1,5.7-1.4,8.6-1.1c0.8,0.1,1.6,0.2,2.4,0.3c-13.2,0.2-23.1,13.5-18.6,26.6
		c3.9,11.6,11.7,23,21.2,33.5C103.5,403.8,99.4,399.1,95.6,394.2z M146.6,96.7c-11.1,10-11.4,33.5-6.6,61c-0.9-3.6-1.8-7.2-2.6-10.8
		c-1.3-5.9-2.5-11.8-3.4-17.8c-0.9-6-1.4-11.9-1.5-17.9c0-5.9,0.5-11.9,2.4-17.3c0.5-1.4,1-2.6,1.7-3.9c0.7-1.2,1.4-2.4,2.3-3.5
		c1.8-2.1,4-3.9,6.4-4.9c2.5-1,5.2-1.3,7.9-0.9c2.7,0.4,5.4,1.4,8,2.7c2.6,1.3,5,2.9,7.4,4.7c2.4,1.8,4.6,3.7,6.8,5.8
		c4.4,4.1,8.4,8.6,12.2,13.2c3.8,4.7,7.5,9.5,10.9,14.5c3,4.2,5.8,8.6,8.6,12.9C185.9,103.2,162.3,82.6,146.6,96.7z M433.9,247.1
		c-0.7,5.7-2.6,11.3-4.9,16.6c-4.7,10.8-11.3,20.8-18.3,30.4c-0.3,0.3-0.5,0.7-0.8,1c13.6-20.6,21.8-41.8,12.2-56.1
		c-10.4-15.6-33.2-8-56,6c1.7-1.3,3.5-2.6,5.3-3.8c4.9-3.4,9.9-6.6,15-9.6c5.1-2.9,10.4-5.6,15.9-7.5c5.4-1.9,11.2-3.2,16.7-2.4
		c2.7,0.4,5.2,1.4,7.3,3c2.1,1.6,3.8,3.8,5.1,6.2C434,235.6,434.6,241.4,433.9,247.1z"/>
</g>
<g id="OBJECTS">
	<ellipse class="st3" cx="250" cy="453.9" rx="184.2" ry="7.7"/>
	<g>
		<g>
			<g>
				<polygon class="st4" points="336.9,239.5 340.6,239.5 410.5,453.9 406.8,453.9 				"/>
				<g>
					<polygon class="st5" points="333.5,272.6 334,273.5 335.4,276.3 351.7,276.3 349.9,272.9 349.7,272.6 					"/>
					<path class="st6" d="M333.5,272.6l0.5,0.9c1.7,0.3,4.2,0.5,6.9,0.5c4.2,0,7.8-0.5,9.1-1.1l-0.2-0.3H333.5z"/>
				</g>
				<g>
					<polygon class="st5" points="325.9,247.1 326.3,248.1 327.8,250.8 343.5,250.8 341.8,247.5 341.6,247.1 					"/>
					<path class="st6" d="M325.9,247.1l0.5,0.9c1.7,0.3,4.1,0.5,6.7,0.5c4.1,0,7.6-0.5,8.8-1.1l-0.2-0.3H325.9z"/>
				</g>
				<g>
					<polygon class="st5" points="342.6,299.2 343.1,300.1 344.5,302.8 360,302.8 358.3,299.5 358.1,299.2 					"/>
					<path class="st6" d="M342.6,299.2l0.5,0.9c1.7,0.3,4,0.5,6.6,0.5c4,0,7.5-0.5,8.7-1.1l-0.2-0.3H342.6z"/>
				</g>
				<g>
					<polygon class="st5" points="351.2,325.7 351.7,326.6 353.1,329.4 368.5,329.4 366.8,326 366.6,325.7 					"/>
					<path class="st6" d="M351.2,325.7l0.5,0.9c1.7,0.3,4,0.5,6.5,0.5c4,0,7.4-0.5,8.6-1.1l-0.2-0.3H351.2z"/>
				</g>
				<g>
					<polygon class="st5" points="359.8,352.3 360.2,353.2 361.7,355.9 377.5,355.9 375.7,352.6 375.6,352.3 					"/>
					<path class="st6" d="M359.8,352.3l0.5,0.9c1.7,0.3,4.1,0.5,6.7,0.5c4.1,0,7.6-0.5,8.8-1.1l-0.2-0.3H359.8z"/>
				</g>
				<g>
					<polygon class="st5" points="368.6,378.8 369.1,379.8 370.5,382.5 386.6,382.5 384.8,379.2 384.7,378.8 					"/>
					<path class="st6" d="M368.6,378.8l0.5,0.9c1.7,0.3,4.1,0.5,6.8,0.5c4.2,0,7.7-0.5,9-1.1l-0.2-0.3H368.6z"/>
				</g>
				<g>
					<polygon class="st5" points="377.4,405.4 377.9,406.3 379.3,409 395.2,409 393.5,405.7 393.3,405.4 					"/>
					<path class="st6" d="M377.4,405.4l0.5,0.9c1.7,0.3,4.1,0.5,6.7,0.5c4.1,0,7.6-0.5,8.9-1.1l-0.2-0.3H377.4z"/>
				</g>
				<g>
					<polygon class="st5" points="385.5,431.9 385.9,432.9 387.4,435.6 403.4,435.6 401.6,432.3 401.4,431.9 					"/>
					<path class="st6" d="M385.5,431.9l0.5,0.9c1.7,0.3,4.1,0.5,6.7,0.5c4.1,0,7.7-0.5,8.9-1.1l-0.2-0.3H385.5z"/>
				</g>
				<polygon class="st4" points="320.5,239.5 324.1,239.5 394,453.9 390.3,453.9 				"/>
			</g>
			<g>
				<g>
					<polygon class="st4" points="318.7,239.5 315,239.5 315.5,453.9 319.1,453.9 					"/>
					<polygon class="st4" points="304.3,239.5 300.6,239.5 301.1,453.9 304.8,453.9 					"/>
				</g>
			</g>
			<rect x="300.6" y="239.5" class="st4" width="39.7" height="3.3"/>
		</g>
		<g>
			<g>
				<path class="st7" d="M322.4,149c-18.8,0.1-30.3-17.6-31.5-25.2c-0.5,0-1,0-1.4-0.2c-1.5-0.6-2.6-2-4.1-2.7
					c-0.7-0.3-1.5-0.4-2.2-0.7c-0.7-0.3-0.7-1.3,0-1.6c1.1-0.5,2.4-0.5,3.6-0.5c-1-0.9-2.7-1.1-3.6-1.9c-0.4-0.4-0.3-1.1,0.3-1.3
					c0.4-0.1,0.9-0.1,1.3,0c1.3,0.2,2.6,0.3,3.9,0.5c-0.6-0.5-1.2-1-1.9-1.5c-0.5-0.4-1-1.1-0.6-1.5c0.3-0.4,1-0.2,1.5,0.1
					c1.2,0.7,2.4,1.4,3.6,2.2c0.2,0.1,0.4,0.3,0.7,0.3c0.5,0.1,1-0.2,1.3-0.5c0.3-0.4,0.6-0.8,1-1.2c0.2-0.2,0.4-0.3,0.6-0.4
					c0.4-0.1,0.9,0.2,1.2,0.5c0.3,0.4,0.3,0.8,0.4,1.3c0.1,1.3-0.1,3-0.7,4.6c0.6,1.5,1.2,2.8,1.9,4.1c7.3,13.3,20,16.9,25.5,17.8
					c0.3,0.1,0.6,0.1,0.9,0.3c1.2,0.5,2,1.5,2.3,2.8C326.7,146.7,324.8,149,322.4,149z"/>
				<path class="st8" d="M323.9,141.5c-2.5,1.3-7.6,2.6-15.8-0.4c-11-4-10.8-14.9-10.5-17.7c7.3,13.3,20,16.9,25.5,17.8
					C323.3,141.3,323.6,141.3,323.9,141.5z"/>
			</g>
			<g>
				<path class="st4" d="M310.9,69l-19.2,113.5c-0.3,1.6-1.7,2.6-3.3,2.3l-32.5-5.5c-1.4-0.2-2.4-1.5-2.4-2.9
					c0.6-11-7.1-20.9-18.2-22.8c-11.1-1.9-21.6,4.9-24.7,15.5c-0.4,1.4-1.8,2.2-3.2,2l-32.5-5.5c-1.6-0.3-2.6-1.7-2.3-3.3l7.9-46.6
					l11.3-66.9c0.3-1.6,1.7-2.6,3.3-2.3l98.2,16.6l15.3,2.6C310.1,66,311.1,67.5,310.9,69z"/>
				<path class="st9" d="M294.2,74.4c0,35.6-28.8,64.4-64.4,64.4c-19.8,0-37.6-9-49.4-23l11.3-66.9c0.3-1.6,1.7-2.6,3.3-2.3
					l98.2,16.6C293.8,66.8,294.2,70.5,294.2,74.4z"/>
			</g>
			<g>
				<g>
					<g>
						<path class="st10" d="M341.2,129.5c2.8-5.5,1.5-12.1-3.3-15.5c-5.3-3.8-13-2.3-17.2,3.5c-4.1,5.8-4.2,13.2,1.2,17
							c1.2,0.9,2.6,1.5,4.1,1.8l-1.1,7.9l7.5,1.1l1.4-9.3c0.9-0.3,1.8-0.7,2.6-1.2c3.1,1.3,7.9-0.2,7.7-3
							C343.9,130,342.4,129.6,341.2,129.5z"/>
						<path class="st7" d="M326,136.4c0,0,2.1,1,5.7,0c0,0-0.7,3-6,2.6L326,136.4z"/>
						<g>
							<path class="st7" d="M342.2,130.8c-0.5-0.1-1,0.1-1.4,0.3c-0.4,0.2-0.9,0.5-1.2,0.8l-0.5-0.8c0.6-0.3,1.2-0.2,1.6,0.2
								c0.4,0.4,0.6,0.8,0.6,1.3c0,0.5-0.3,1-0.7,1.2c-0.4,0.2-0.8,0.3-1.2,0.2c0.3-0.2,0.7-0.4,0.9-0.7c0.2-0.3,0.3-0.5,0.2-0.8
								c0-0.3-0.2-0.5-0.4-0.7c-0.2-0.1-0.4-0.2-0.5-0.1l0,0c-0.2,0.1-0.5,0-0.6-0.2c-0.1-0.2,0-0.5,0.2-0.6c0.5-0.3,1-0.5,1.5-0.6
								C341.1,130.4,341.8,130.4,342.2,130.8z"/>
						</g>
					</g>
					<g>
						<path class="st11" d="M347.5,121.6L347.5,121.6c-0.1,1.1-0.5,2.1-0.9,3.1c-0.7,1.4-1.6,2.8-2.6,4.1c-0.3,0.4-0.6,0.8-1,1.2
							c0,0-1.3-0.4-1.8-0.4c-1.3,0-4,1.1-4,1.1c-0.9-0.1-1.3-0.9-1.5-2.1c-0.3-2.4,0.5-6.3,0.9-8.1h0c0.1-0.6,0.2-0.9,0.2-0.9
							c-8.2,4.3-13.6-2.5-13.6-2.5c-3.6,1.6-5.3,7-5.3,7c-0.6-0.6-1.2-1.3-1.3-2.1c-0.1-0.8,0-1.6,0-2.5c0.2-1.8,0.6-3.7,1.5-5.3
							c0,0,0,0,0,0c-0.1-0.1-0.2-0.2-0.3-0.4c-0.1-0.1-0.2-0.3-0.3-0.4c-0.3-0.5-0.6-1.1-0.8-1.7v0c-0.1-0.3-0.1-0.6-0.1-0.9
							c0-1.6,1.4-3,2.9-3.7c0.1,0,0.2-0.1,0.3-0.1c2.5-1,5.4-0.8,7.7,0.6c0.2,0.1,0.4,0.3,0.5,0.5c-0.1-0.3,0-0.7,0.1-1
							c0.2-0.5,0.6-0.9,1.1-1.2c2.2-1.7,5.5-2,8-0.8c1.5,0.7,2.7,2,3.6,3.4c0.5,0.8,0.9,1.6,1.2,2.5c0.7,2,1,4.2,1.2,6.3
							c0,0.4,0.1,0.9,0.1,1.3c0.8-0.7,2.1-0.6,3,0.1C347.2,119.4,347.6,120.5,347.5,121.6z"/>
						<path class="st12" d="M343.3,117.3c-0.1,0.1-0.2,0.1-0.3,0.2c-0.9,0.5-2,0.6-2.9,0c-0.5-0.4-0.9-1-1.5-1.1
							c-0.7-0.1-1.3,0.4-2,0.5c-0.7,0.1-1.4-0.2-2-0.4c-0.8-0.3-1.6-0.7-2.3-1c-0.7-0.3-1.5-0.6-2.2-0.4c-1,0.2-1.6,1.3-2.6,1.5
							c-0.8,0.2-1.7-0.2-2.4-0.7c-0.7-0.5-1.4-1.1-2.2-1.4c-0.2,0-0.4-0.1-0.6,0c-0.6,0.1-0.8,0.9-1.2,1.3c-0.4,0.3-1,0.3-1.5,0.1
							c-0.5-0.2-0.8-0.6-1.2-1.1c-0.1-0.1-0.2-0.3-0.3-0.4c-0.1-0.1-0.2-0.3-0.3-0.4c-0.1-0.1-0.2-0.3-0.3-0.4
							c-0.3-0.5-0.6-1.1-0.8-1.7v0c-0.1-0.3-0.1-0.6-0.1-0.9c0-1.6,1.4-3,2.9-3.7c1.4,0.4,2.8,1,4,1.8c0.6,0.4,1.3,0.9,2.1,0.8
							c0.9-0.1,1.6-0.9,2.4-1.1c1.3-0.3,2.5,0.7,3.6,1.3c2.1,1.1,4.8,1.1,6.8-0.2c0.8-0.5,1.5-1.1,2.3-1.4c0.5,0.8,0.9,1.6,1.2,2.5
							C342.9,113,343.2,115.1,343.3,117.3z"/>
						<path class="st12" d="M347.5,121.6L347.5,121.6c-0.1,1.1-0.5,2.1-0.9,3.1c-0.7,1.4-1.6,2.8-2.6,4.1c-0.2-0.1-0.3-0.3-0.5-0.3
							c-0.5-0.2-1.1,0.1-1.7,0c-1.2-0.1-2.1-1.7-3.3-1.5c-0.6,0.1-1,0.6-1.5,0.9c-0.4,0.3-0.8,0.5-1.2,0.6c-0.3-2.4,0.5-6.3,0.9-8.1
							h0c0.7-0.1,1.4,0.1,2,0.5c0.9,0.5,1.7,1.3,2.7,1.6c1.4,0.5,2.9,0.1,4.2-0.5C346.2,121.7,346.9,121.3,347.5,121.6z"/>
					</g>
				</g>
				<g>
					<g>
						<path class="st13" d="M331.2,141.7c-2.7-0.3-6.1-1.8-8.4-0.4c-4.8,2.9-7.2,3.4-8,7.4c0,0.2,2,14.8,2,14.8l16.1,1.4
							c0,0,2.6-6.9,4.5-13C339,147.3,336,142.1,331.2,141.7z"/>
						<path class="st14" d="M337.3,149.9c0,0-5.1,6.1-21.3,3.6c0,0,7.8,8.9,14.2,6.7C336.6,158,337.3,149.9,337.3,149.9z"/>
					</g>
					<g>
						<path class="st10" d="M335.3,151.8c-17.1,7.6-34.8-3.9-39-10.4c-0.4,0.2-0.9,0.4-1.4,0.4c-1.6,0.1-3.2-0.8-4.9-0.8
							c-0.8,0-1.5,0.2-2.3,0.3c-0.8,0-1.2-0.9-0.7-1.5c0.8-0.8,2-1.4,3.1-1.9c-1.3-0.4-2.9,0.1-4.1-0.3c-0.6-0.2-0.7-0.9-0.3-1.3
							c0.3-0.3,0.8-0.5,1.2-0.6c1.3-0.4,2.5-0.8,3.8-1.1c-0.8-0.2-1.5-0.4-2.3-0.6c-0.6-0.2-1.4-0.6-1.2-1.2
							c0.1-0.5,0.8-0.6,1.4-0.5c1.4,0.1,2.8,0.3,4.2,0.5c0.2,0,0.5,0.1,0.7,0c0.5-0.1,0.8-0.6,1-1c0.2-0.5,0.2-1,0.4-1.4
							c0.1-0.2,0.2-0.4,0.4-0.6c0.4-0.3,0.9-0.2,1.3,0c0.4,0.2,0.6,0.6,0.9,1c0.6,1.1,1.1,2.8,1.2,4.5c1.1,1.1,2.3,2.1,3.4,3
							c12.1,9.3,25.1,7.4,30.5,6.1c0.3-0.1,0.6-0.1,0.9-0.1c1.3,0,2.5,0.6,3.2,1.7C338.3,148,337.6,150.8,335.3,151.8z"/>
						<path class="st15" d="M333.7,144.3c-1.8,2.2-5.9,5.5-14.7,6c-11.7,0.8-15.9-9.3-16.8-12c12.1,9.3,25.1,7.4,30.5,6.1
							C333.1,144.3,333.4,144.3,333.7,144.3z"/>
					</g>
				</g>
				<g>
					<g>
						<path class="st16" d="M318,234.9c0,0,1.7,3,0.3,4.7H307c0,0-1.2-1.6,4.4-4.7H318z"/>
						<g>
							<path class="st17" d="M314.4,168c0,0-10.5,25.1-5.9,46.1l2.6,20.9h7.3c0,0,0.3-36.4,7.5-54.2
								C326,180.8,326.2,167.1,314.4,168z"/>
							<g>
								<path class="st18" d="M318.9,182.5c-0.6,2.1-1.1,4.2-1.5,6.3c-0.4,2.1-0.7,4.3-1,6.4c-0.5,4.3-0.8,8.6-0.8,12.9
									c-0.1,4.3,0.1,8.6,0.3,12.9c0.1,2.2,0.3,4.3,0.5,6.5l0.6,6.5c-0.4-2.1-0.8-4.3-1.1-6.4c-0.2-2.2-0.6-4.3-0.8-6.5
									c-0.2-2.2-0.4-4.3-0.4-6.5c0-1.1-0.1-2.2-0.1-3.3l0-3.3c0.1-4.3,0.4-8.7,1-13C316.4,190.9,317.3,186.6,318.9,182.5z"/>
							</g>
						</g>
					</g>
					<g>
						<path class="st16" d="M328,234.9c0,0,1.7,3,0.3,4.7h-11.4c0,0-1.2-1.6,4.4-4.7H328z"/>
						<g>
							<path class="st19" d="M333,164.8l-16.1-1.4c-0.1,0.1-0.2,0.2-0.2,0.3c-4.9,6.3-2.6,14.8,3.5,18.5c-2.1,6.5-4.7,18.1-1.7,31.8
								L321,235h7.3c0,0,0.4-32.1,6.1-50.9c0.1-0.2,0.1-0.5,0.2-0.7c0.2-0.5,0.3-1,0.5-1.5c0.1-0.2,0.1-0.4,0.1-0.7
								c0.1-0.6,0.3-1.1,0.3-1.7C336.3,171.4,333,164.8,333,164.8z"/>
							<g>
								<path class="st20" d="M326.4,164.3c-0.1,1.2-0.1,2.5,0,3.7c0.1,1.2,0.2,2.4,0.6,3.5c0.3,1.1,0.9,2.1,1.8,2.8
									c0.9,0.7,2.1,1,3.3,1.2c-1.2,0.2-2.6,0.1-3.7-0.6c-1.2-0.7-1.9-1.9-2.3-3.1c-0.4-1.2-0.5-2.5-0.4-3.8
									C325.7,166.7,325.9,165.4,326.4,164.3z"/>
							</g>
							<g>
								<path class="st20" d="M330.9,165.2c1.1,2.7,1.9,5.5,2.2,8.5c0.2,1.5,0.2,2.9-0.1,4.4c-0.3,1.5-0.7,2.8-1.1,4.3
									c-1.4,5.6-2.8,11.3-3.9,17c-1.1,5.7-2.1,11.5-1.6,17.2c0.2,5.8,0.4,11.6,0.5,17.5c-0.5-5.8-0.9-11.6-1.3-17.4
									c-0.1-1.4-0.2-2.9-0.2-4.4c0-1.5,0.1-2.9,0.3-4.4c0.3-2.9,0.8-5.8,1.3-8.7c1.1-5.7,2.5-11.4,4.1-17
									C333.6,176.7,332.6,170.7,330.9,165.2z"/>
							</g>
						</g>
					</g>
				</g>
			</g>
		</g>
	</g>
	<g>
		<g>
			<path class="st21" d="M145.7,265.3c13.5,11.7,32.7,6.1,38.3,1.3c0.3,0.3,0.7,0.6,1.2,0.7c1.5,0.6,3.1,0.2,4.6,0.6
				c0.7,0.2,1.3,0.6,2,0.9c0.7,0.3,1.3-0.5,1-1.1c-0.5-1-1.4-1.8-2.3-2.6c1.3,0,2.6,0.9,3.8,0.8c0.6,0,0.9-0.6,0.6-1.1
				c-0.2-0.3-0.6-0.6-0.9-0.8c-1-0.7-2.1-1.4-3.1-2.1c0.8,0,1.5,0.1,2.3,0.1c0.6,0,1.4-0.1,1.4-0.7c0-0.5-0.6-0.8-1.1-0.9
				c-1.3-0.3-2.6-0.5-4-0.7c-0.2,0-0.5-0.1-0.7-0.2c-0.4-0.2-0.6-0.7-0.6-1.2c0-0.5,0.1-1,0-1.4c0-0.2-0.1-0.5-0.2-0.6
				c-0.3-0.3-0.8-0.4-1.2-0.3c-0.4,0.1-0.8,0.4-1.1,0.7c-0.9,0.8-1.8,2.3-2.4,3.8c-1.3,0.7-2.6,1.3-3.9,1.7
				c-13.5,5.1-24.9-0.2-29.4-2.9c-0.3-0.2-0.5-0.3-0.8-0.4c-1.1-0.4-2.4-0.1-3.4,0.6C144,261,143.9,263.7,145.7,265.3z"/>
			<path class="st22" d="M149.2,258.9c1,2.5,3.8,6.6,11.6,9.5c10.4,3.9,17-4.1,18.6-6.2c-13.5,5.1-24.9-0.2-29.4-2.9
				C149.8,259.1,149.5,259,149.2,258.9z"/>
		</g>
		<g>
			<path class="st23" d="M288.7,201v112.8c0,2.2-1.8,4-4,4h-30.8c-2,0-3.7,1.4-4,3.3c-1.6,10.5-10.7,18.6-21.6,18.6
				c-11,0-20-8.1-21.6-18.6c-0.3-1.9-2-3.3-4-3.3h-30.8c-2.2,0-4-1.8-4-4V201c0-2.2,1.8-4,4-4h30.8c2,0,3.7-1.4,4-3.3
				c1.6-10.5,10.7-18.6,21.6-18.6c11,0,20,8.1,21.6,18.6c0.3,1.9,2,3.3,4,3.3h30.8C286.9,196.9,288.7,198.7,288.7,201z"/>
			<path class="st24" d="M288.7,201v94c-25.6,6.9-55.2-1.6-75.4-24c-19.2-21.4-24.9-50-17-74h6.3c2,0,3.7-1.4,4-3.3
				c1.6-10.5,10.7-18.6,21.6-18.6c11,0,20,8.1,21.6,18.6c0.3,1.9,2,3.3,4,3.3h30.8C286.9,196.9,288.7,198.7,288.7,201z"/>
		</g>
		<g>
			<polygon class="st4" points="156.8,274.5 153.2,274.5 89.5,453.9 93.2,453.9 			"/>
			<g>
				<polygon class="st5" points="160.5,299.2 160,300.1 158.7,302.8 144.2,302.8 145.8,299.5 146,299.2 				"/>
				<path class="st6" d="M160.5,299.2l-0.4,0.9c-1.6,0.3-3.7,0.5-6.1,0.5c-3.8,0-7-0.5-8.1-1.1l0.2-0.3H160.5z"/>
			</g>
			<g>
				<polygon class="st5" points="151.3,325.7 150.8,326.6 149.5,329.4 135,329.4 136.6,326 136.8,325.7 				"/>
				<path class="st6" d="M151.3,325.7l-0.4,0.9c-1.6,0.3-3.7,0.5-6.1,0.5c-3.8,0-7-0.5-8.1-1.1l0.2-0.3H151.3z"/>
			</g>
			<g>
				<polygon class="st5" points="141.5,352.3 141,353.2 139.7,355.9 125.2,355.9 126.8,352.6 127,352.3 				"/>
				<path class="st6" d="M141.5,352.3l-0.4,0.9c-1.6,0.3-3.7,0.5-6.1,0.5c-3.8,0-7-0.5-8.1-1.1l0.2-0.3H141.5z"/>
			</g>
			<g>
				<polygon class="st5" points="131.9,378.8 131.5,379.8 130.2,382.5 115.7,382.5 117.3,379.2 117.4,378.8 				"/>
				<path class="st6" d="M131.9,378.8l-0.4,0.9c-1.6,0.3-3.7,0.5-6.1,0.5c-3.8,0-7-0.5-8.1-1.1l0.2-0.3H131.9z"/>
			</g>
			<g>
				<polygon class="st5" points="123,405.4 122.5,406.3 121.2,409 106.7,409 108.3,405.7 108.5,405.4 				"/>
				<path class="st6" d="M123,405.4l-0.4,0.9c-1.6,0.3-3.7,0.5-6.1,0.5c-3.8,0-7-0.5-8.1-1.1l0.2-0.3H123z"/>
			</g>
			<g>
				<polygon class="st5" points="113.4,431.9 112.9,432.9 111.6,435.6 97.1,435.6 98.7,432.3 98.9,431.9 				"/>
				<path class="st6" d="M113.4,431.9l-0.4,0.9c-1.6,0.3-3.7,0.5-6.1,0.5c-3.8,0-7-0.5-8.1-1.1l0.2-0.3H113.4z"/>
			</g>
			<polygon class="st4" points="170.5,274.5 166.8,274.5 103.2,453.9 106.9,453.9 			"/>
		</g>
		<g>
			<g>
				<g>
					<path class="st22" d="M150,290.5c0,0,4.1,17.9-5.5,37.1l-8.5,19.3l-6.2-2.4c0,0,9.4-30.6,6.8-49.6
						C136.6,294.8,138.8,286.6,150,290.5z"/>
					<path class="st25" d="M141.5,321.1c-1.2,2.8-3.9,4.2-7.2,4.6c0-0.1,0.1-0.3,0.1-0.4c2.3-0.7,4.1-2,5.1-4.2
						c3.2-7.3,0.9-22.3-0.6-29.8c0.5-0.4,1.1-0.8,1.8-1.1C142.1,297.2,144.9,313.4,141.5,321.1z"/>
					<path class="st26" d="M129.7,344.4c0,0-2.5,2.4-1.7,4.4l10.8,3.4c0,0,1.6-1.2-2.8-5.8L129.7,344.4z"/>
					<path class="st25" d="M142.6,322.8c-0.4,0.3-0.6,0.7-0.6,1.1c0,0.2-0.1,0.4,0,0.6c0,0.2,0.1,0.2,0.1,0.3
						c0.2,0.1,0.4,0.1,0.6-0.1c0.1-0.1,0.1-0.2,0.1-0.3c0-0.1-0.3-0.2-0.4,0c-0.1-0.3,0.3-0.6,0.7-0.4c0.3,0.2,0.4,0.7,0.3,1
						c-0.1,0.3-0.4,0.6-0.8,0.7c-0.4,0.1-0.8,0-1.1-0.3c-0.3-0.3-0.4-0.7-0.4-1c0-0.3,0.1-0.6,0.2-0.8
						C141.5,323.2,142.1,322.7,142.6,322.8z"/>
				</g>
				<g>
					<path class="st22" d="M137.9,286.7c0,0,5.9,24.3,1.6,34.3c-4.4,10-26.5,1.5-32.4-1.8l1.5-5.5c0,0,17.6,0.6,21.9,2.3
						c0,0-11.3-16.9-4.3-29.3H137.9z"/>
					<path class="st26" d="M108.8,313.8c0,0-2.4-2.3-4.3-1.5c-0.1,0-0.1,0.1-0.1,0.2l-2.8,10.9c0,0,1.5,0.5,5.9-4.1L108.8,313.8z"/>
					<path class="st25" d="M135.9,317.8c-0.4,0.3-0.6,0.7-0.6,1.1c0,0.2-0.1,0.4,0,0.6c0,0.2,0.1,0.2,0.1,0.3
						c0.2,0.1,0.4,0.1,0.6-0.1c0.1-0.1,0.1-0.2,0.1-0.3c0-0.1-0.3-0.2-0.4,0c-0.1-0.3,0.3-0.6,0.7-0.4c0.3,0.2,0.4,0.7,0.3,1
						c-0.1,0.3-0.4,0.6-0.8,0.7c-0.4,0.1-0.8,0-1.1-0.3c-0.3-0.3-0.4-0.7-0.4-1c0-0.3,0.1-0.6,0.2-0.8
						C134.8,318.1,135.4,317.7,135.9,317.8z"/>
				</g>
			</g>
			<g>
				<path class="st22" d="M139.1,257.4c2.7,0.4,5.7,0.8,8.2,1.2c4,0.6,6.2,6.9,6.1,11c0,0.2,0,0.4,0,0.6c-0.3,2.9-7.4,11.7-7.4,11.7
					l-14-2.6c0,0-0.9-7.3-1.4-13.7C130.2,260.7,134.4,256.7,139.1,257.4z"/>
				<path class="st26" d="M146.5,281.5l-0.1,0.2c6.2,8.3,5.8,19.1,5.2,23.8c-0.2,1.5-0.4,2.4-0.4,2.4H126
					c-10.4-15.1,5.3-29.2,5.3-29.2l-0.4-9c0-0.1,0.1-0.2,0.2-0.1c2.8,3,5.4,1,5.4,1c4-4.2-1.9-12.6-1.9-12.6
					c1.6-1.1,2.8-0.8,2.8-0.8c3,3.5,8.6,7.4,9,6.7c0.4-0.7-1.1-5.4-1.2-5.8c0,0,0,0,0,0l3.6,0.5c0,0,0,0,0,0l3.6,9.1
					c0.8,1.9,0.5,4-0.6,5.7L146.5,281.5z"/>
				<g>
					<path class="st22" d="M131.9,267.5c14.2,12.3,34.4,6.5,40.3,1.4c0.4,0.3,0.8,0.6,1.2,0.8c1.5,0.6,3.3,0.2,4.9,0.7
						c0.7,0.2,1.4,0.7,2.1,0.9c0.7,0.3,1.4-0.5,1.1-1.2c-0.5-1-1.5-1.9-2.4-2.7c1.4,0,2.7,0.9,4,0.9c0.6,0,1-0.7,0.6-1.2
						c-0.2-0.3-0.6-0.7-1-0.9c-1.1-0.7-2.2-1.5-3.3-2.2c0.8,0,1.6,0.1,2.4,0.1c0.6,0,1.5-0.1,1.5-0.8c0-0.5-0.6-0.8-1.2-0.9
						c-1.4-0.3-2.8-0.5-4.2-0.7c-0.3,0-0.5-0.1-0.7-0.2c-0.4-0.2-0.6-0.8-0.7-1.3c0-0.5,0.1-1,0-1.5c0-0.2-0.1-0.5-0.2-0.7
						c-0.3-0.4-0.8-0.5-1.2-0.4c-0.4,0.1-0.8,0.4-1.1,0.7c-0.9,0.9-1.9,2.4-2.5,4c-1.4,0.7-2.8,1.3-4.1,1.8
						c-14.2,5.3-26.2-0.2-30.9-3.1c-0.3-0.2-0.6-0.3-0.8-0.4c-1.2-0.4-2.5-0.1-3.6,0.7C130.1,262.9,130,265.8,131.9,267.5z"/>
					<path class="st27" d="M151.1,274.7l-1.4,2c-5.2-0.4-10.7-2-15.6-5.4c1.3,0.1,2.2-0.5,2.4-0.6
						C141.2,273.4,146.3,274.6,151.1,274.7z"/>
					<path class="st28" d="M135.6,260.7c1.1,2.6,4,6.9,12.3,10c10.9,4.1,17.9-4.3,19.5-6.6c-14.2,5.3-26.2-0.2-30.9-3.1
						C136.2,261,135.9,260.8,135.6,260.7z"/>
				</g>
				<path class="st29" d="M151.6,305.5c-0.8,0-1.7-0.2-2.5-0.5c-4.7-1.7-8-5.9-10.3-10.2c-0.7-1.3-1.4-2.7-1.6-4.1
					c-0.2-1.4-0.1-2.8,0.3-4.2c0.4-1.3,1-2.5,1.9-3.4c1.3-1.2,3-1.6,4.7-1.6c0.6,0,1.4,0,2.3,0l-0.1,0.2
					C152.6,290,152.2,300.8,151.6,305.5z"/>
			</g>
			<g>
				<path class="st22" d="M155.6,237.1c-2.1-6.8-8.8-10.7-15.1-8.8c-4.7,1.4-7.7,5.6-8.2,10.5c-1.1-0.6-3-1.2-4,0.6
					c-1.3,2.3,1.8,5.4,5,5.9c1.1,2.5,3.1,4.6,5.4,6l-1.1,6.2l7.5,1.4l1-5.6c1,0,2-0.2,3-0.5C155.3,251,157.6,243.9,155.6,237.1z"/>
				<g>
					<g>
						<path class="st30" d="M129.5,239.7c0.5-0.3,1.1-0.1,1.6,0.1c0.5,0.2,1,0.5,1.4,0.9c0.2,0.1,0.2,0.4,0,0.5
							c-0.1,0.1-0.4,0.2-0.5,0l0,0c-0.1-0.1-0.4-0.1-0.6,0c-0.2,0.1-0.4,0.4-0.5,0.6c-0.1,0.3-0.1,0.5,0.1,0.8
							c0.2,0.3,0.5,0.5,0.8,0.8c-0.4-0.1-0.8-0.2-1.1-0.5c-0.3-0.3-0.6-0.8-0.4-1.3c0.1-0.5,0.4-0.9,0.8-1.2
							c0.4-0.3,1.1-0.3,1.5,0.1l-0.5,0.6c-0.3-0.4-0.7-0.7-1.1-1C130.5,240,130.1,239.8,129.5,239.7z"/>
					</g>
					<path class="st30" d="M146,253.4c0,0-2.7,0.5-5.2-1.4c0,0,1.7,3.7,4.7,4L146,253.4z"/>
				</g>
				<g>
					<path class="st31" d="M163.6,264c-5.7-0.5-12.6-4.1-12.6-4.1c-1.6-1-2-0.9-2-0.9l-0.1-0.2l-3.7-0.6l0.9-4.9
						c10.6-1.1,10.3-11.2,10.3-11.2c-1,0.1-2.3-0.3-3.7-0.9c-2.4-1.1-5.1-3.1-7.3-4.8c-2.4-1.9-4.2-3.5-4.2-3.5s-0.3,2.7-2.3,5.3
						c-0.8,1.1-1.9,2.1-3.3,2.9c0,0-0.1-0.8-3.2-2.3c0,0-2.8-1.3-3.8,1.1c0,0-0.1,0.2-0.1,0.5c-0.1,0.9,0.3,3.1,4.9,5
						c0,0,2.6,4.2,5.4,6l-1.1,6c0,0-1.3-0.3-2.9,0.8c0,0-4.5,2.1-4.1,7.7l0.3,3.6l0.2,4.2c-21.3-6.5-4.9-30.2-4.9-30.2
						c-0.2-1-0.4-1.9-0.4-2.7c-0.3-4.9,2.1-7.3,3.7-8.4c0.8-0.5,1.4-0.7,1.4-0.7s8.4-11.6,22.9-1.4c0.6,0.4,1.3,0.9,1.9,1.4
						c0,0,1.9,1.2,3.3,3.4c1.4,2.2,2.2,5.4,0.2,9.6c0,0,2.4,1.8,4.3,8.6C165.4,260.2,163.6,264,163.6,264z"/>
					<path class="st32" d="M139.1,236.2c0,0.7-0.1,1.4-0.4,2c-0.8,1.1-1.9,2.1-3.3,2.9c0,0-0.1-0.8-3.2-2.3c0,0-2.8-1.3-3.8,1.1
						c0,0-0.1,0.2-0.1,0.5c-0.6,0.4-1.2,0.8-1.9,0.7c-0.3,0-0.5-0.1-0.7-0.2c-0.3-4.9,2.1-7.3,3.7-8.4c0.3,0.2,0.6,0.4,0.9,0.5
						c0.8,0.2,1.5-0.1,2.3-0.3c0.8-0.2,1.7-0.1,2.1,0.6c0.3,0.5,0.2,1.2,0.6,1.6c0.4,0.5,1.2,0.3,1.8,0.2c0.6-0.1,1.4-0.2,1.8,0.4
						C139.1,235.7,139.1,236,139.1,236.2z"/>
					<path class="st32" d="M158.9,235.2v0.2c-0.1,1.6-1,3.3-2.6,3.8c-0.7,0.2-1.4,0.2-2,0.4c-0.5,0.2-1,0.5-1.3,1
						c-0.1,0.2-0.2,0.4-0.4,0.6c-2.4-1.1-5.1-3.1-7.3-4.8c1-0.5,2.4-0.7,3-1.7c0.3-0.4,0.4-1,0.8-1.3c0.3-0.2,0.7-0.1,1.1-0.1
						c0.8,0.1,1.8,0,2.4-0.5c0.6-0.5,0.8-1.3,1-2.1c0-0.1,0.1-0.2,0.1-0.3c0.6,0.4,1.3,0.9,1.9,1.4
						C155.7,231.8,157.5,233,158.9,235.2z"/>
				</g>
			</g>
		</g>
	</g>
	<g>
		<g>
			<path class="st33" d="M287.1,335.9V451c0,1.6-1.3,2.9-2.9,2.9H169c-1.6,0-2.9-1.3-2.9-2.9V335.9c0-1.6,1.3-2.9,2.9-2.9h33
				c1.4,0,2.7,1.1,2.8,2.5c1.2,10.9,10.5,19.4,21.7,19.4c11.2,0,20.5-8.5,21.7-19.4c0.2-1.4,1.4-2.5,2.8-2.5h33
				C285.8,333,287.1,334.3,287.1,335.9z"/>
			<path class="st34" d="M277.3,346.7c0,34.5-28.7,62.5-64,62.5c-18.6,0-35.4-7.8-47.1-20.1v-53.2c0-1.6,1.3-2.9,2.9-2.9h33
				c1.4,0,2.7,1.1,2.8,2.5c1.2,10.9,10.5,19.4,21.7,19.4c11.2,0,20.5-8.5,21.7-19.4c0.2-1.4,1.4-2.5,2.8-2.5h24.6
				C276.8,337.4,277.3,342,277.3,346.7z"/>
		</g>
		<g>
			<g>
				<path class="st22" d="M327.3,346.1c3.1-0.8,5.9-4.2,4.4-6.4c-1.2-1.7-3-0.9-4-0.2c-0.9-4.8-4.4-8.7-9.1-9.7
					c-6.4-1.3-12.8,3.2-14.2,10.2c-1.4,7,1.5,13.8,8,15.1c1,0.2,2,0.2,3,0.2l1.5,5.5l7.3-2.1l-1.7-6.1
					C324.7,351,326.4,348.7,327.3,346.1z"/>
				<path class="st30" d="M315.3,355.2c0,0,3.2-0.3,5.3-2c0,0-0.5,3.7-4.4,5.2L315.3,355.2z"/>
				<g>
					<path class="st30" d="M331.2,340.2c-0.5-0.1-1,0.1-1.4,0.3c-0.4,0.2-0.9,0.5-1.3,0.8l-0.4-0.7c0.5-0.3,1.2-0.2,1.5,0.2
						c0.4,0.4,0.5,0.8,0.6,1.3c0,0.5-0.3,1-0.7,1.2c-0.4,0.2-0.8,0.3-1.2,0.3c0.3-0.2,0.7-0.4,0.9-0.6c0.2-0.2,0.3-0.5,0.3-0.8
						c0-0.3-0.2-0.6-0.4-0.7c-0.2-0.2-0.4-0.2-0.6-0.1l0,0c-0.2,0.1-0.4,0-0.5-0.2c-0.1-0.2,0-0.4,0.1-0.5c0.5-0.3,1-0.5,1.5-0.6
						C330.1,339.9,330.8,339.9,331.2,340.2z"/>
				</g>
				<g>
					<path class="st35" d="M331.9,344.6c-2.2,4.7-5.9,4.3-5.9,4.3l1.4-2.8c6.8-2.8,4.3-6.5,4.3-6.5c-1.5-1.8-3.8-0.2-3.8-0.2
						c-0.2,4.3-2.7,3.3-2.7,3.3c-2-0.2-3.3-2.3-4.2-4c-0.6-1.4-1-2.6-1-2.6s-0.4,1.7-2,3.4c-1.3,1.4-3.5,2.9-6.8,3.5l0.9-1.3
						c0,0-3.2,3.4-8,2.4l0.4,3.2c0,0-5.9-3-1.7-10c0.8-1.4,2-3,3.8-4.7c0.3-0.3,0.6-0.6,0.9-0.8c8.3-7.4,15.7-2.2,15.7-2.2
						s2.8-0.9,5.4,0.7c0.2,0.1,0.4,0.3,0.7,0.5c2.5,1.9,3.8,4.9,4,7.9C333.1,340.6,332.7,342.7,331.9,344.6z"/>
					<path class="st36" d="M333,338.6c-0.3-0.2-0.6-0.5-0.8-0.8c-0.6-0.5-1.4-0.7-2.1-0.7c-1.3,0-2.4,0.8-3.5,1.5
						c-1.1,0.7-2.4,1.3-3.6,1c-0.7-0.2-1.4-0.7-2.1-0.9c-0.6-1.4-1-2.6-1-2.6s-0.4,1.7-2,3.4c-2.2,1.1-4.7,1.6-6.9,0.6
						c-1.2-0.5-2.1-1.5-3.3-1.9c-0.8-0.3-1.8-0.3-2.7-0.4c-0.6,0-1.3,0-1.9-0.2c-0.2-0.1-0.4-0.2-0.5-0.3c0.8-1.4,2-3,3.8-4.7
						c0.3-0.3,0.6-0.6,0.9-0.8c0.7,0.4,1.2,1.1,2,1.5c1.2,0.6,2.5,0.1,3.7-0.4c1.2-0.5,2.4-1.1,3.7-1c1.3,0.2,2.3,1.1,3.5,1.5
						c1.7,0.6,3.5,0,5.1-0.9c1.1-0.7,2.1-1.5,3.2-2.2c0.2,0.1,0.4,0.3,0.7,0.5C331.5,332.6,332.8,335.5,333,338.6z"/>
				</g>
			</g>
			<g>
				<g>
					<path class="st37" d="M333.2,449.4c0,0,1.2,2.8,0.2,3.8c-1,1-11.6,0.9-11.9-0.1c-0.3-1,5.1-3.7,5.1-3.7L333.2,449.4z"/>
					<g>
						<path class="st38" d="M315.3,389.9c0,0-7.1,30.6-6.3,34c0.8,3.4,17.6,25.4,17.6,25.4l6.6,0.1c0,0-6.8-22.5-11.1-27.9
							c0,0,8.3-15,5.8-26C325.4,384.6,315.3,389.9,315.3,389.9z"/>
						<g>
							<path class="st39" d="M326.7,400.1c-1,3.8-2,7.6-3.1,11.4c-1,3.8-2.2,7.5-3.3,11.3l0-0.3c1,2.2,2,4.4,3,6.6l2.9,6.6
								c1.9,4.4,3.8,8.8,5.6,13.3c-2.2-4.3-4.2-8.6-6.3-13l-3-6.5c-1-2.2-2-4.4-3-6.6l0,0c0-0.1,0-0.2,0-0.3
								c1.2-3.7,2.3-7.5,3.6-11.2C324.2,407.6,325.4,403.8,326.7,400.1z"/>
						</g>
						<g>
							<path class="st39" d="M324.2,399.7c-1,3.9-2,7.8-3.1,11.7c-1,3.9-2.2,7.8-3.3,11.7l0-0.3c1,2.1,2,4.3,2.9,6.5l2.9,6.5
								c1.9,4.4,3.8,8.7,5.5,13.1c-2.2-4.2-4.2-8.5-6.2-12.8l-3-6.5c-1-2.2-2-4.3-3-6.5l0,0c0-0.1,0-0.2,0-0.3
								c1.2-3.9,2.3-7.7,3.5-11.6C321.7,407.4,322.9,403.6,324.2,399.7z"/>
						</g>
					</g>
				</g>
				<g>
					<path class="st37" d="M361.3,444.2c0,0,2.6,1.6,2.3,3c-0.3,1.4-9,7.3-9.8,6.6c-0.8-0.7,2-5.9,2-5.9L361.3,444.2z"/>
					<g>
						<path class="st40" d="M340.1,394.9C340.1,394.9,340.1,394.9,340.1,394.9c-0.6-11.1-8.4-15.3-8.4-15.3l-15.7,3.9
							c0,0.1-0.1,0.2-0.1,0.4c-2.8,8,3.1,15.9,10.9,16.3c0.7,4.8,3.7,19.4,15.9,32.3l13,16.5l5.9-4.6
							C361.5,444.3,343.2,413.9,340.1,394.9z"/>
						<g>
							<path class="st41" d="M330.7,379.9c2,2.3,3.7,4.8,5.2,7.4c1.4,2.6,2.6,5.6,2.9,8.6c0.6,2.9,1.4,5.8,2.3,8.6
								c0.9,2.8,1.9,5.7,3,8.5c2.1,5.6,4.4,11.2,6.9,16.6c1.2,2.7,2.6,5.4,4,8c1.5,2.6,3,5.2,5.1,7.4c-4.3-4.3-7.1-9.7-9.8-15.1
								c-2.7-5.4-5-11-7.1-16.6c-1-2.8-2-5.7-2.9-8.5c-0.9-2.9-1.8-5.8-2.2-8.8c-0.2-3-1.3-5.8-2.6-8.5
								C334.1,384.8,332.5,382.3,330.7,379.9z"/>
						</g>
						<g>
							<path class="st41" d="M329.2,381.4c2,2.3,3.7,4.8,5.2,7.4c1.4,2.6,2.6,5.5,2.9,8.6c0.6,2.9,1.4,5.8,2.3,8.6
								c0.9,2.8,1.9,5.7,3,8.5c2.1,5.6,4.4,11.2,6.9,16.6c1.2,2.7,2.6,5.4,4,8c1.5,2.6,3,5.2,5.1,7.4c-4.3-4.3-7.1-9.7-9.8-15.1
								c-2.7-5.4-5-11-7.1-16.6c-1-2.8-2-5.7-2.9-8.5c-0.9-2.9-1.8-5.8-2.2-8.8c-0.2-3-1.3-5.8-2.6-8.5
								C332.6,386.3,331,383.8,329.2,381.4z"/>
						</g>
						<g>
							<path class="st41" d="M326.1,381.7c0.5,0.8,1,1.5,1.5,2.3c0.5,0.7,1,1.4,1.7,2c0.6,0.6,1.3,1.1,2,1.5
								c0.8,0.4,1.6,0.6,2.5,0.7c-0.9,0.3-1.9,0.3-2.8,0c-0.9-0.3-1.7-0.9-2.4-1.5c-0.7-0.7-1.2-1.5-1.6-2.3
								C326.5,383.5,326.2,382.6,326.1,381.7z"/>
						</g>
					</g>
				</g>
			</g>
			<g>
				<g>
					<path class="st42" d="M319.6,361.3c-6.2-0.8-22.9-6.7-30.8-23.5l-1.5,8.7c0,0,8.8,23.3,32,22.6c2.5-0.1,4.2-2.5,3.6-4.9l0,0
						C322.5,362.6,321.2,361.5,319.6,361.3z"/>
					<path class="st22" d="M287,335.4c0-0.1,0.1-0.2,0.3-0.2c0.4,0.3,1.2,0.9,1.7,2.6c0.7,2.3-0.5,7.8-2,8.7V335.4z"/>
				</g>
				<path class="st43" d="M322.6,358.6c-2.7,0.6-5.9,0.5-8.1,1.9c-7.2,4.6-2.4,8.2-1.9,12.3c0,0.2,3.4,10.7,3.4,10.7l15.7-3.9
					c0,0,0.1-6.1,0.2-12.5C331.9,360.9,327.3,357.5,322.6,358.6z"/>
				<g>
					<path class="st44" d="M328.7,365.1c-4.9,8.7-15.6,9.6-15.6,9.6s9.1,3.3,11.7,1.4C327.5,374.2,328.7,365.1,328.7,365.1z"/>
					<path class="st44" d="M323,359.7c-4.5,5.1-12.4,7.3-12.4,7.3L323,359.7z"/>
					<g>
						<path class="st43" d="M323,359.7c-4.7,4.2-17.7,13.3-36,6.9l0,6.2c0,0,26.9,10.3,41.7-7.7c1.6-1.9,0.9-4.8-1.3-5.9l0,0
							C326,358.4,324.2,358.6,323,359.7z"/>
						<path class="st22" d="M287.1,361.1c0,0,1.3,0.6,1.7,2.9c0.5,2.4-0.1,8.1-1.7,8.8V361.1z"/>
					</g>
				</g>
			</g>
		</g>
	</g>
</g>
<g id="DESIGNED_BY_FREEPIK" class="st0">
	<g id="XMLID_30_" class="st45">
		<g id="XMLID_230_">
			<g id="XMLID_249_">
				<path id="XMLID_257_" class="st46" d="M260.1,465.5c-0.4,0.4-0.8,0.9-1.1,1.5l-0.5-0.2c-0.1-0.3-0.3-0.5-0.7-0.5
					c-0.3,0-0.6,0.3-0.5,0.7c0,0.3,0.3,0.6,0.7,0.5c0.1,0,0.1,0,0.2-0.1l0.5,0.2c-0.3,0.6-0.4,1.1-0.5,1.7l0.7,0.1
					c0.2-1.3,0.8-2.5,1.8-3.5L260.1,465.5z"/>
				<path id="XMLID_256_" class="st46" d="M265.6,463.2c-0.2,0-0.3,0-0.5,0l-0.1-0.6c0.2-0.1,0.3-0.4,0.3-0.6c0-0.4-0.4-0.7-0.8-0.6
					c-0.4,0-0.7,0.4-0.6,0.8c0,0.3,0.2,0.5,0.4,0.6l0.1,0.6c-0.7,0.1-1.4,0.3-2.1,0.6l0.3,0.7c0.9-0.4,1.9-0.7,3-0.7
					c0.5,0,1,0.1,1.5,0.2l0.2-0.7C266.7,463.2,266.1,463.2,265.6,463.2z"/>
				<path id="XMLID_255_" class="st46" d="M272.2,465.7c0.3,0,0.6-0.3,0.5-0.7c0-0.3-0.3-0.6-0.7-0.5c-0.3,0-0.5,0.3-0.5,0.6
					l-0.4,0.4c-0.4-0.4-0.9-0.8-1.4-1.1l-0.4,0.6c1.1,0.7,2,1.7,2.6,2.9l0.7-0.3c-0.3-0.6-0.6-1.1-0.9-1.5l0.4-0.4
					C272.1,465.7,272.1,465.7,272.2,465.7z"/>
				<path id="XMLID_254_" class="st46" d="M265,473.4c-0.4,0-0.8,0-1.2,0c-0.9,0-1.7-0.1-2.5-0.2c-0.4-0.1-0.8-0.2-1.3-0.3
					c1,1.9,3.1,3.1,5.4,3.1c2.9,0,5.3-1.9,5.9-4.5c-0.7,0.4-1.5,0.8-2.5,1.1C267.8,473,266.5,473.3,265,473.4z"/>
				<path id="XMLID_250_" class="st46" d="M265.6,464.7c-3.4,0-6.1,2.7-6.1,5.9c0,0.4,0,0.8,0.1,1.3c0.7,0.5,2.7,0.9,5.3,0.7
					c2.9-0.2,5.3-1,6.7-2.2c0-0.2,0-0.4,0-0.6C271.2,466.9,268.7,464.7,265.6,464.7z M263.4,471.2c-1,0-1.8-0.8-1.8-1.8
					c0-1,0.8-1.9,1.8-1.9c1,0,1.8,0.8,1.8,1.9C265.3,470.4,264.5,471.2,263.4,471.2z M268.2,470.3c-0.8,0-1.4-0.6-1.4-1.4
					s0.6-1.4,1.4-1.4s1.4,0.6,1.4,1.4S268.9,470.3,268.2,470.3z"/>
			</g>
			<path id="XMLID_247_" class="st46" d="M281.6,466.5c-0.3-0.1-0.8-0.3-1.4-0.2c-0.6,0.1-0.8,0.3-0.8,1v0.9h2.2v1.7h-2.2v5.5h-1.9
				v-5.5h-1.3v-1.7h1.3v-0.9c0-1.7,0.9-2.8,2.6-2.8c0.6,0,1.2,0.1,1.6,0.3V466.5z"/>
			<path id="XMLID_245_" class="st46" d="M286.3,469.9c-0.2,0-0.4,0-0.5,0c-0.9,0-1.5,0.5-1.5,1.6v3.9h-1.9v-7.2h1.9v0.8
				c0.5-0.7,1.1-1,2-1c0.4,0,0.8,0.1,1.1,0.3L286.3,469.9z"/>
			<path id="XMLID_242_" class="st46" d="M294,471.8c0,0.2,0,0.5,0,0.7h-5.1c0.2,1,0.9,1.5,1.8,1.5c0.6,0,1.3-0.3,1.8-0.7l1.1,1.2
				c-0.8,0.7-1.9,1.1-3.1,1.1c-2.2,0-3.7-1.5-3.7-3.8c0-2.3,1.5-3.8,3.6-3.8C292.5,468,294,469.5,294,471.8z M288.9,471.1h3.2
				c-0.2-0.9-0.7-1.4-1.6-1.4C289.6,469.7,289,470.2,288.9,471.1z"/>
			<path id="XMLID_239_" class="st46" d="M301.6,471.8c0,0.2,0,0.5,0,0.7h-5.1c0.2,1,0.9,1.5,1.8,1.5c0.6,0,1.3-0.3,1.8-0.7l1.1,1.2
				c-0.8,0.7-1.9,1.1-3.1,1.1c-2.2,0-3.7-1.5-3.7-3.8c0-2.3,1.5-3.8,3.6-3.8C300.2,468,301.6,469.5,301.6,471.8z M296.5,471.1h3.2
				c-0.2-0.9-0.7-1.4-1.6-1.4C297.2,469.7,296.7,470.2,296.5,471.1z"/>
			<path id="XMLID_236_" class="st46" d="M310,471.8c0,2.2-1.5,3.8-3.5,3.8c-1,0-1.6-0.4-2.1-0.9v3.7h-1.9v-10.1h1.9v0.8
				c0.5-0.6,1.2-1,2.1-1C308.5,468,310,469.6,310,471.8z M304.3,471.8c0,1.1,0.7,2,1.8,2c1.1,0,1.8-0.9,1.8-2c0-1.1-0.7-2-1.8-2
				C305,469.8,304.3,470.6,304.3,471.8z"/>
			<path id="XMLID_233_" class="st46" d="M313.1,465.8c0,0.7-0.5,1.2-1.2,1.2c-0.7,0-1.2-0.5-1.2-1.2c0-0.7,0.5-1.2,1.2-1.2
				C312.5,464.6,313.1,465.1,313.1,465.8z M312.8,475.4h-1.9v-7.2h1.9V475.4z"/>
			<path id="XMLID_231_" class="st46" d="M316,470.7l2.7-2.6h2.4l-3.5,3.4l3.5,3.8h-2.4l-2.7-2.9v2.9h-1.9v-10.7h1.9V470.7z"/>
		</g>
		<g id="XMLID_202_">
			<path id="XMLID_227_" class="st46" d="M184.4,475.3v-1.1c-0.5,0.7-1.4,1.2-2.4,1.2c-1.8,0-3.1-1.4-3.1-3.7c0-2.3,1.3-3.7,3.1-3.7
				c1,0,1.8,0.5,2.4,1.2v-3.8h1.1v9.8H184.4z M184.4,473.4v-3.2c-0.4-0.6-1.2-1.1-2.1-1.1c-1.4,0-2.3,1.2-2.3,2.7
				c0,1.6,0.8,2.7,2.3,2.7C183.2,474.5,184,474,184.4,473.4z"/>
			<path id="XMLID_224_" class="st46" d="M186.9,471.7c0-2.1,1.5-3.7,3.5-3.7c2.1,0,3.4,1.7,3.4,3.8v0.3h-5.7c0.1,1.3,1,2.4,2.5,2.4
				c0.8,0,1.6-0.3,2.2-0.9l0.5,0.7c-0.7,0.7-1.7,1.1-2.8,1.1C188.4,475.5,186.9,474,186.9,471.7z M190.4,468.9
				c-1.5,0-2.3,1.3-2.3,2.4h4.6C192.7,470.2,192,468.9,190.4,468.9z"/>
			<path id="XMLID_222_" class="st46" d="M194.6,474.4l0.6-0.8c0.5,0.5,1.4,1,2.3,1c1.1,0,1.7-0.5,1.7-1.2c0-1.7-4.4-0.7-4.4-3.3
				c0-1.1,1-2,2.6-2c1.2,0,2.1,0.5,2.6,1l-0.5,0.8c-0.4-0.5-1.2-0.9-2.1-0.9c-1,0-1.6,0.5-1.6,1.1c0,1.6,4.4,0.5,4.4,3.3
				c0,1.2-1,2.1-2.8,2.1C196.3,475.5,195.3,475.1,194.6,474.4z"/>
			<path id="XMLID_219_" class="st46" d="M201.5,466.5c0-0.4,0.3-0.7,0.7-0.7c0.4,0,0.7,0.3,0.7,0.7c0,0.4-0.3,0.7-0.7,0.7
				C201.8,467.2,201.5,466.9,201.5,466.5z M201.7,475.3v-7.1h1.1v7.1H201.7z"/>
			<path id="XMLID_216_" class="st46" d="M204.6,477.1l0.6-0.8c0.6,0.7,1.3,1,2.3,1c1.2,0,2.3-0.6,2.3-2.1v-1
				c-0.5,0.7-1.4,1.3-2.4,1.3c-1.8,0-3.1-1.4-3.1-3.7c0-2.3,1.3-3.7,3.1-3.7c1,0,1.8,0.5,2.4,1.2v-1.1h1.1v6.9
				c0,2.3-1.6,3.1-3.4,3.1C206.2,478.2,205.4,477.9,204.6,477.1z M209.7,473.3v-3.1c-0.4-0.6-1.2-1.1-2.1-1.1
				c-1.4,0-2.3,1.1-2.3,2.7c0,1.6,0.8,2.7,2.3,2.7C208.5,474.4,209.3,473.9,209.7,473.3z"/>
			<path id="XMLID_214_" class="st46" d="M217.4,475.3v-4.6c0-1.2-0.6-1.6-1.6-1.6c-0.9,0-1.7,0.5-2.1,1.1v5.2h-1.1v-7.1h1.1v1
				c0.5-0.6,1.5-1.2,2.5-1.2c1.5,0,2.3,0.7,2.3,2.3v5H217.4z"/>
			<path id="XMLID_211_" class="st46" d="M219.9,471.7c0-2.1,1.5-3.7,3.5-3.7c2.1,0,3.4,1.7,3.4,3.8v0.3h-5.7c0.1,1.3,1,2.4,2.5,2.4
				c0.8,0,1.6-0.3,2.2-0.9l0.5,0.7c-0.7,0.7-1.7,1.1-2.8,1.1C221.4,475.5,219.9,474,219.9,471.7z M223.4,468.9
				c-1.5,0-2.3,1.3-2.3,2.4h4.6C225.7,470.2,225,468.9,223.4,468.9z"/>
			<path id="XMLID_208_" class="st46" d="M233.4,475.3v-1.1c-0.5,0.7-1.4,1.2-2.4,1.2c-1.8,0-3.1-1.4-3.1-3.7c0-2.3,1.3-3.7,3.1-3.7
				c1,0,1.8,0.5,2.4,1.2v-3.8h1.1v9.8H233.4z M233.4,473.4v-3.2c-0.4-0.6-1.2-1.1-2.1-1.1c-1.4,0-2.3,1.2-2.3,2.7
				c0,1.6,0.8,2.7,2.3,2.7C232.1,474.5,233,474,233.4,473.4z"/>
			<path id="XMLID_205_" class="st46" d="M239.7,475.3v-9.8h1.1v3.8c0.6-0.8,1.4-1.2,2.4-1.2c1.8,0,3.1,1.5,3.1,3.7
				c0,2.3-1.3,3.7-3.1,3.7c-1,0-1.9-0.5-2.4-1.2v1.1H239.7z M242.9,474.5c1.4,0,2.3-1.2,2.3-2.7c0-1.6-0.8-2.7-2.3-2.7
				c-0.9,0-1.7,0.5-2.1,1.1v3.2C241.2,474,242,474.5,242.9,474.5z"/>
			<path id="XMLID_203_" class="st46" d="M247.5,477.1c0.2,0.1,0.4,0.1,0.6,0.1c0.5,0,0.8-0.2,1.1-0.7l0.5-1.1l-3-7.1h1.2l2.4,5.8
				l2.3-5.8h1.2l-3.5,8.5c-0.4,1-1.1,1.4-2.1,1.4c-0.2,0-0.6,0-0.8-0.1L247.5,477.1z"/>
		</g>
	</g>
</g>
</svg>
