<?xml version="1.0" encoding="utf-8"?>
<!-- Generator: Adobe Illustrator 22.0.1, SVG Export Plug-In . SVG Version: 6.00 Build 0)  -->
<svg version="1.1" xmlns="http://www.w3.org/2000/svg" xmlns:xlink="http://www.w3.org/1999/xlink" x="0px" y="0px"
	 viewBox="0 0 500 500" style="enable-background:new 0 0 500 500;" xml:space="preserve">
<style type="text/css">
	.st0{display:none;}
	.st1{display:inline;fill:#FFFFFF;}
	.st2{fill:#F3DEFF;}
	.st3{fill:#1A2A99;}
	.st4{fill:#ED1DA3;}
	.st5{fill:#7F1EC4;}
	.st6{fill:#E5A35C;}
	.st7{fill:#FFC688;}
	.st8{fill:#FFC278;}
	.st9{fill:#0B7BE0;}
	.st10{display:inline;}
	.st11{fill:#9EB7C7;}
</style>
<g id="BACKGROUND" class="st0">
	<rect class="st1" width="500" height="500"/>
</g>
<g id="OBJECTS">
	<g>
		<ellipse class="st2" cx="165.9" cy="398.8" rx="79.8" ry="11.1"/>
		<ellipse class="st2" cx="339.8" cy="405.5" rx="79.8" ry="11.1"/>
		<g>
			<path class="st3" d="M151,254.2c0,0-19.8,58.2-34.7,133.5l9.7,3.4c0,0,24.2-86.5,42.7-122.5c0.8-1.5,5.6-1.1,8.2-0.8
				c1,0.1,1.8,0.8,1.9,1.8c1.9,9.9,12.2,64.5,18.3,116l10.7-1.7c0,0,0.4-47.9-10.8-136.9l-28.6-20.7L151,254.2z"/>
			<path class="st4" d="M98.7,288.8c16.2-13.3,33.5-14.4,45.6,0.4c17.6,21.4-3,39.9,12,58.2l-11.9,9.8
				c-17.9-21.8,0.8-37.4-12.7-53.8c-6.4-7.8-15.1-7.1-23.5-0.2c-8.8,7.2-10.3,16.2-3.1,25.7l-12.3,9.9
				C79.2,321.1,81.9,302.6,98.7,288.8z M170.1,361.7c3.7,4.5,3.3,10.4-0.9,13.8c-4.2,3.4-10,2.8-13.7-1.8
				c-3.6-4.4-3.1-10.1,1.1-13.6C160.8,356.7,166.5,357.3,170.1,361.7z"/>
			<path class="st5" d="M169.1,162.1l-2.5,1.1c0,0-52.4,16.7-48,110l7.8-0.1c0,0-2.5-49.2,25.2-76.7l-0.6,57.7
				c0,0,24.9,8.8,46.3-5.6c0,0-9.1-57.6-10.2-68.8l30.5,1.3l0.3-13.4c0,0-29.9,0.9-43.9-5.3L169.1,162.1z"/>
			<path class="st3" d="M165.6,116.1c0,0-16.9-1.7-22,11s6.8,26.6,7.9,32.6c1.1,6-1.9,8.1-1.9,8.1s21.8,1.3,26.7-12.8
				c0,0,22.6-0.9,20.8-18.8c0,0-5.4,3.9-10-5.6c-4.6-9.5-3.8-16.3-12.5-18.4C169,110.6,165.6,116.1,165.6,116.1z"/>
			<path class="st6" d="M168.4,155l-2.6,11.7c0,0,4.6,4.5,6.8,1.8c2.2-2.7,2.5-12.4,2.5-12.4L168.4,155z"/>
			<path class="st7" d="M183.6,136.7c-7.5-2.9-11.7-12.5-11.7-12.5c2,11.5-13.1,23-13.1,23c-2.4-1.3-5.9,0.4-2.9,3.8
				c3,3.4,6.5,2.1,6.5,2.1c4,4.9,10,10,18.4,4.9C188.2,153.3,184.5,139.5,183.6,136.7C183.6,136.7,183.6,136.7,183.6,136.7z"/>
			<path class="st8" d="M126.4,278.9L126.4,278.9L126.4,278.9c0,0,0.1,0,0.1,0l3.5,0.5c-0.1-2.2-3.6-6.2-3.6-6.2
				c-4.9-2.1-7.8,0.1-7.8,0.1c-2.4,13.3,5.8,16.7,8.4,17c2.6,0.3-0.2-3.9-0.9-6.5C125.4,281.5,125.3,278.8,126.4,278.9z"/>
			<path class="st9" d="M116.2,387.7c0,0-17.6,8.5-14.5,9.9c3.1,1.4,23.3,0.8,23.4,0c0-0.8,0.8-6.5,0.8-6.5L116.2,387.7z"/>
			<path class="st9" d="M207.8,383.9c0,0,15.9,11.1,13.6,11.2c-2.3,0.1-24.1,0.5-24.2-1c-0.1-1.5-0.1-8.6-0.1-8.6L207.8,383.9z"/>
		</g>
		<g>
			<path class="st4" d="M405.7,256.9c8.9,4.5,12.7,11.8,8.6,19.9c-5.9,11.7-17.9,6.3-23,16.3l-6.5-3.3c6-11.9,16.4-6.8,20.9-15.8
				c2.2-4.3,0.2-7.9-4.4-10.2c-4.8-2.4-9-1.4-11.8,3.6l-6.6-3.4C387.9,254.6,396.5,252.2,405.7,256.9z M387.7,301.8
				c-1.3,2.5-3.9,3.4-6.2,2.2c-2.3-1.2-3.1-3.8-1.9-6.3c1.2-2.4,3.8-3.3,6.1-2.1C388.1,296.8,388.9,299.4,387.7,301.8z"/>
			<path class="st4" d="M263.9,89.1c4.9-6,11.2-7.6,16.6-3.1c7.9,6.5,1.8,14.7,8.5,20.3l-3.6,4.4c-8.1-6.6-2.4-13.7-8.5-18.6
				c-2.9-2.4-6-1.5-8.6,1.6c-2.7,3.3-2.6,6.6,0.7,9.6l-3.8,4.5C259.1,102.3,258.8,95.4,263.9,89.1z M295.1,110.5
				c1.7,1.4,1.9,3.5,0.7,5.1c-1.3,1.5-3.4,1.7-5.1,0.3c-1.6-1.3-1.8-3.5-0.6-5C291.4,109.4,293.5,109.2,295.1,110.5z"/>
			<path class="st4" d="M103.8,145.1c6.4,1.1,10.2,5,9.2,10.8c-1.5,8.5-10,7.4-11.3,14.6l-4.7-0.8c1.5-8.6,9-7.4,10.1-13.9
				c0.5-3.1-1.4-5-4.7-5.6c-3.5-0.6-5.9,0.9-6.7,4.5l-4.8-0.9C92.3,147.1,97.2,144,103.8,145.1z M101.2,176.7
				c-0.3,1.8-1.8,2.9-3.4,2.6c-1.7-0.3-2.7-1.8-2.4-3.6c0.3-1.7,1.8-2.8,3.4-2.5C100.4,173.5,101.5,175,101.2,176.7z"/>
		</g>
		<g>
			<path class="st9" d="M289.8,243.8c0,0-3.8,55.1,10.6,149l8.5,2.2c0,0-0.5-91,3.5-125.5c0.1-1.1,1.1-1.8,2.2-1.6l9.6,1.8
				c0.6,0.1,1.2,0.5,1.4,1.1c3.4,8.6,29.3,73.9,47.5,124.3l10.3-2.8c0,0-22-91.8-39.1-143.3l-29.8-32.2L289.8,243.8z"/>
			<path class="st3" d="M372.8,220.7c-1.6-19.8-26.1-45.2-26.1-45.2c-4.1-2.6-8.7-4.9-14-7l-12.2-0.6l-42,9l-26.8-2.5l-17.7,10.1
				c0,0,21.4,19.5,66.4,7.7l-10.6,51.8c0,0,24.8,11.5,54.5,5.2l2-51.8c4.9,5.3,11.3,13.4,13.8,22c4.4,14.7-11.2,31.5-11.2,31.5l4,5
				C352.9,255.6,374.4,240.5,372.8,220.7z"/>
			<path class="st9" d="M325.6,166.6c0,0-11.5-0.6-12.5,14.6c0,0,11.1,0.5,13.7-7.7c0,0,2,7.7,11.1,9.5c0,0,4.6-8.2-6.8-16.1
				L325.6,166.6z"/>
			<path class="st6" d="M322.4,163.3c0,0-2.2,9.6,2.9,10.8c3.3,0.5,7.4,0.1,7.3-8.8L322.4,163.3z"/>
			<path class="st5" d="M322,159c0,0-7.1,1.9-9.3-4.1c0,0-4.2,1.1-6.6-4.7c-2.4-5.8,1.8-8.3,1.8-8.3s-4.7-6-2.8-11.6
				c1.9-5.7,7.7-3.9,7.7-3.9s0.1-8.5,5-11.7c4.9-3.2,7.5,1.5,7.5,1.5s3.4-7.3,10.3-6.4c6.9,0.9,4.1,7.8,4.1,7.8s4.6-1.8,9.4,1.3
				c4.7,3.1,4.6,7.7,4.6,7.7s7.2-1.5,9,4.4c1.7,6-1.8,10.5-1.8,10.5s3.7,2.9,1.6,6.4c-2.2,3.5-6.2,4.6-6.2,4.6s3.1,3.3-1.7,5.9
				c-3.8,2.1-8.3,0.3-8.3,0.3s-4,2.6-7-0.2c-3-2.8-16.8,0.2-16.8,0.2"/>
			<path class="st4" d="M252.5,154.4c33.2,0,55.4,16.1,55.4,46.2c0,43.7-43.7,45.7-43.7,83.1h-24.4c0-44.6,38.5-44.9,38.5-78.4
				c0-16.1-11.4-23.8-28.5-23.8c-18,0-28.8,9.4-29.6,28.2l-24.9-0.3C196.3,174.4,218.2,154.4,252.5,154.4z M266.7,315.2
				c0,9.3-6.4,15.9-15,15.9c-8.6,0-15-6.7-15-15.9c0-9,6.4-15.4,15-15.4C260.2,299.7,266.7,306.1,266.7,315.2z"/>
			<path class="st7" d="M348.4,152.5c-0.8-2-3.2-0.8-4.7,0.3c0.7-2,1.4-4.3,2.1-6.8c0,0-7.9,0.8-10-7c0,0-4,4.5-8.2,1.2
				c0,0-2.7,4.8-7.5,1.6c0,0-0.6,2.2-1.2,5.3c-0.6-1.8-1.6-3.7-3.2-3.1c-2.9,1.1-2.6,9.8,2.6,10.3c0,6,1.5,12.1,7.6,13.5
				c6.8,1.6,11.5,0.1,15.9-10.1C344.5,159,349.5,155.2,348.4,152.5z"/>
			<path class="st3" d="M300.4,392.7c0,0-18.5,12-16.3,12.2c2.2,0.2,23.4-0.8,25.1-0.8c2.5,0-0.3-9.3-0.3-9.3L300.4,392.7z"/>
			<path class="st3" d="M383.4,392.2c0,0,18.5,11.4,16.1,12.8c-2.4,1.4-24.4-0.1-25.1-1.7c-0.7-1.7-1.3-8.2-1.3-8.2L383.4,392.2z"/>
			<path class="st8" d="M348.9,250.6l-4.1-0.2l0.7,2.2c0,0-6.3,6.6-5.6,8.9c0.7,2.2,4.1,2,7.8,0c3.7-2,5.2-5.9,5.2-5.9L348.9,250.6z
				"/>
			<path class="st3" d="M234.4,184.6l-4.8-4.8l5.3-2.3c0,0,8.8,4.4,23.1,4.7l-5.1,5.9L234.4,184.6z"/>
			<path class="st8" d="M229.5,179.9c0,0-3.7-2-5.1-6.5c-1.3-4.6,3-8.7,4.1-6.3c1.1,2.3,1.3,4.6,3.3,6.3c2,1.7,2.9,4.2,2.9,4.2
				L229.5,179.9z"/>
		</g>
	</g>
</g>
<g id="DESIGNED_BY_FREEPIK" class="st0">
	<g class="st10">
		<g id="XMLID_29_">
			<g id="XMLID_48_">
				<path id="XMLID_56_" class="st11" d="M260.1,465.5c-0.4,0.4-0.8,0.9-1.1,1.5l-0.5-0.2c-0.1-0.3-0.3-0.5-0.7-0.5
					c-0.3,0-0.6,0.3-0.5,0.7c0,0.3,0.3,0.6,0.7,0.5c0.1,0,0.1,0,0.2-0.1l0.5,0.2c-0.3,0.6-0.4,1.1-0.5,1.7l0.7,0.1
					c0.2-1.3,0.8-2.5,1.8-3.5L260.1,465.5z"/>
				<path id="XMLID_55_" class="st11" d="M265.6,463.2c-0.2,0-0.3,0-0.5,0l-0.1-0.6c0.2-0.1,0.3-0.4,0.3-0.6c0-0.4-0.4-0.7-0.8-0.6
					c-0.4,0-0.7,0.4-0.6,0.8c0,0.3,0.2,0.5,0.4,0.6l0.1,0.6c-0.7,0.1-1.4,0.3-2.1,0.6l0.3,0.7c0.9-0.4,1.9-0.7,3-0.7
					c0.5,0,1,0.1,1.5,0.2l0.2-0.7C266.7,463.2,266.1,463.2,265.6,463.2z"/>
				<path id="XMLID_54_" class="st11" d="M272.2,465.7c0.3,0,0.6-0.3,0.5-0.7c0-0.3-0.3-0.6-0.7-0.5c-0.3,0-0.5,0.3-0.5,0.6
					l-0.4,0.4c-0.4-0.4-0.9-0.8-1.4-1.1l-0.4,0.6c1.1,0.7,2,1.7,2.6,2.9l0.7-0.3c-0.3-0.6-0.6-1.1-0.9-1.5l0.4-0.4
					C272.1,465.7,272.1,465.7,272.2,465.7z"/>
				<path id="XMLID_53_" class="st11" d="M265,473.4c-0.4,0-0.8,0-1.2,0c-0.9,0-1.7-0.1-2.5-0.2c-0.4-0.1-0.8-0.2-1.3-0.3
					c1,1.9,3.1,3.1,5.4,3.1c2.9,0,5.3-1.9,5.9-4.5c-0.7,0.4-1.5,0.8-2.5,1.1C267.8,473,266.5,473.3,265,473.4z"/>
				<path id="XMLID_49_" class="st11" d="M265.6,464.7c-3.4,0-6.1,2.7-6.1,5.9c0,0.4,0,0.8,0.1,1.3c0.7,0.5,2.7,0.9,5.3,0.7
					c2.9-0.2,5.3-1,6.7-2.2c0-0.2,0-0.4,0-0.6C271.2,466.9,268.7,464.7,265.6,464.7z M263.4,471.2c-1,0-1.8-0.8-1.8-1.8
					c0-1,0.8-1.8,1.8-1.8s1.8,0.8,1.8,1.8C265.3,470.4,264.5,471.2,263.4,471.2z M268.2,470.3c-0.8,0-1.4-0.6-1.4-1.4
					s0.6-1.4,1.4-1.4s1.4,0.6,1.4,1.4S268.9,470.3,268.2,470.3z"/>
			</g>
			<path id="XMLID_46_" class="st11" d="M281.6,466.5c-0.3-0.1-0.8-0.3-1.4-0.2c-0.6,0.1-0.8,0.3-0.8,1v0.9h2.2v1.7h-2.2v5.5h-1.9
				v-5.5h-1.3v-1.7h1.3v-0.9c0-1.7,0.9-2.8,2.6-2.8c0.6,0,1.2,0.1,1.6,0.3L281.6,466.5z"/>
			<path id="XMLID_44_" class="st11" d="M286.3,469.9c-0.2,0-0.4,0-0.5,0c-0.9,0-1.5,0.5-1.5,1.6v3.9h-1.9v-7.2h1.9v0.8
				c0.5-0.7,1.1-1,2-1c0.4,0,0.8,0.1,1.1,0.3L286.3,469.9z"/>
			<path id="XMLID_41_" class="st11" d="M294,471.8c0,0.2,0,0.5,0,0.7h-5.1c0.2,1,0.9,1.5,1.8,1.5c0.6,0,1.3-0.3,1.8-0.7l1.1,1.2
				c-0.8,0.7-1.9,1.1-3.1,1.1c-2.2,0-3.7-1.5-3.7-3.8c0-2.3,1.5-3.8,3.6-3.8C292.5,468,294,469.5,294,471.8z M288.9,471.1h3.2
				c-0.2-0.9-0.7-1.4-1.6-1.4C289.6,469.7,289,470.2,288.9,471.1z"/>
			<path id="XMLID_38_" class="st11" d="M301.6,471.8c0,0.2,0,0.5,0,0.7h-5.1c0.2,1,0.9,1.5,1.8,1.5c0.6,0,1.3-0.3,1.8-0.7l1.1,1.2
				c-0.8,0.7-1.9,1.1-3.1,1.1c-2.2,0-3.7-1.5-3.7-3.8c0-2.3,1.5-3.8,3.6-3.8C300.2,468,301.6,469.5,301.6,471.8z M296.5,471.1h3.2
				c-0.2-0.9-0.7-1.4-1.6-1.4C297.2,469.7,296.7,470.2,296.5,471.1z"/>
			<path id="XMLID_35_" class="st11" d="M310,471.8c0,2.2-1.5,3.8-3.5,3.8c-1,0-1.6-0.4-2.1-0.9v3.7h-1.9v-10.1h1.9v0.8
				c0.5-0.6,1.2-1,2.1-1C308.5,468,310,469.6,310,471.8z M304.3,471.8c0,1.1,0.7,2,1.8,2c1.1,0,1.9-0.9,1.9-2c0-1.1-0.7-2-1.9-2
				C305,469.8,304.3,470.6,304.3,471.8z"/>
			<path id="XMLID_32_" class="st11" d="M313.1,465.8c0,0.7-0.5,1.2-1.2,1.2c-0.7,0-1.2-0.5-1.2-1.2c0-0.7,0.5-1.2,1.2-1.2
				C312.5,464.6,313.1,465.1,313.1,465.8z M312.8,475.4h-1.9v-7.2h1.9V475.4z"/>
			<path id="XMLID_30_" class="st11" d="M316,470.7l2.7-2.6h2.4l-3.5,3.4l3.5,3.8h-2.4l-2.7-2.9v2.9h-1.9v-10.7h1.9V470.7z"/>
		</g>
		<g>
			<path class="st11" d="M184.4,475.3v-1.1c-0.5,0.7-1.4,1.2-2.4,1.2c-1.8,0-3.1-1.4-3.1-3.7c0-2.3,1.3-3.7,3.1-3.7
				c1,0,1.8,0.5,2.4,1.2v-3.8h1.1v9.8H184.4z M184.4,473.4v-3.2c-0.4-0.6-1.2-1.1-2.1-1.1c-1.4,0-2.3,1.2-2.3,2.7
				c0,1.6,0.8,2.7,2.3,2.7C183.2,474.5,184,474,184.4,473.4z"/>
			<path class="st11" d="M186.9,471.7c0-2.1,1.5-3.7,3.5-3.7c2.1,0,3.4,1.7,3.4,3.8v0.3h-5.7c0.1,1.3,1,2.4,2.5,2.4
				c0.8,0,1.6-0.3,2.2-0.9l0.5,0.7c-0.7,0.7-1.7,1.1-2.8,1.1C188.4,475.5,186.9,474,186.9,471.7z M190.4,468.9
				c-1.5,0-2.3,1.3-2.3,2.4h4.6C192.7,470.2,192,468.9,190.4,468.9z"/>
			<path class="st11" d="M194.6,474.4l0.6-0.8c0.5,0.5,1.4,1,2.3,1c1.1,0,1.7-0.5,1.7-1.2c0-1.7-4.4-0.7-4.4-3.3c0-1.1,1-2,2.6-2
				c1.2,0,2.1,0.5,2.6,1l-0.5,0.8c-0.4-0.5-1.2-0.9-2.1-0.9c-1,0-1.6,0.5-1.6,1.1c0,1.6,4.4,0.5,4.4,3.3c0,1.2-1,2.1-2.8,2.1
				C196.3,475.5,195.3,475.1,194.6,474.4z"/>
			<path class="st11" d="M201.5,466.5c0-0.4,0.3-0.7,0.7-0.7c0.4,0,0.7,0.3,0.7,0.7c0,0.4-0.3,0.7-0.7,0.7
				C201.8,467.2,201.5,466.9,201.5,466.5z M201.7,475.3v-7.1h1.1v7.1H201.7z"/>
			<path class="st11" d="M204.6,477.1l0.6-0.8c0.6,0.7,1.3,1,2.3,1c1.2,0,2.3-0.6,2.3-2.1v-1c-0.5,0.7-1.4,1.3-2.4,1.3
				c-1.8,0-3.1-1.4-3.1-3.7c0-2.3,1.3-3.7,3.1-3.7c1,0,1.8,0.5,2.4,1.2v-1.1h1.1v6.9c0,2.3-1.6,3.1-3.4,3.1
				C206.2,478.2,205.4,477.9,204.6,477.1z M209.7,473.3v-3.1c-0.4-0.6-1.2-1.1-2.1-1.1c-1.4,0-2.3,1.1-2.3,2.7
				c0,1.6,0.8,2.7,2.3,2.7C208.5,474.4,209.3,473.9,209.7,473.3z"/>
			<path class="st11" d="M217.4,475.3v-4.6c0-1.2-0.6-1.6-1.6-1.6c-0.9,0-1.7,0.5-2.1,1.1v5.2h-1.1v-7.1h1.1v1
				c0.5-0.6,1.5-1.2,2.5-1.2c1.5,0,2.3,0.7,2.3,2.3v5H217.4z"/>
			<path class="st11" d="M219.9,471.7c0-2.1,1.5-3.7,3.5-3.7c2.1,0,3.4,1.7,3.4,3.8v0.3h-5.7c0.1,1.3,1,2.4,2.5,2.4
				c0.8,0,1.6-0.3,2.2-0.9l0.5,0.7c-0.7,0.7-1.7,1.1-2.8,1.1C221.4,475.5,219.9,474,219.9,471.7z M223.4,468.9
				c-1.5,0-2.3,1.3-2.3,2.4h4.6C225.7,470.2,225,468.9,223.4,468.9z"/>
			<path class="st11" d="M233.3,475.3v-1.1c-0.5,0.7-1.4,1.2-2.4,1.2c-1.8,0-3.1-1.4-3.1-3.7c0-2.3,1.3-3.7,3.1-3.7
				c1,0,1.8,0.5,2.4,1.2v-3.8h1.1v9.8H233.3z M233.3,473.4v-3.2c-0.4-0.6-1.2-1.1-2.1-1.1c-1.4,0-2.3,1.2-2.3,2.7
				c0,1.6,0.8,2.7,2.3,2.7C232.1,474.5,233,474,233.3,473.4z"/>
			<path class="st11" d="M239.7,475.3v-9.8h1.1v3.8c0.6-0.8,1.4-1.2,2.4-1.2c1.8,0,3.1,1.5,3.1,3.7c0,2.3-1.3,3.7-3.1,3.7
				c-1,0-1.9-0.5-2.4-1.2v1.1H239.7z M242.9,474.5c1.4,0,2.3-1.2,2.3-2.7c0-1.6-0.8-2.7-2.3-2.7c-0.9,0-1.7,0.5-2.1,1.1v3.2
				C241.2,474,242,474.5,242.9,474.5z"/>
			<path class="st11" d="M247.5,477.1c0.2,0.1,0.4,0.1,0.6,0.1c0.5,0,0.8-0.2,1.1-0.7l0.5-1.1l-3-7.1h1.2l2.4,5.8l2.3-5.8h1.2
				l-3.5,8.5c-0.4,1-1.1,1.4-2.1,1.4c-0.2,0-0.6,0-0.8-0.1L247.5,477.1z"/>
		</g>
	</g>
</g>
</svg>
